<?xml version="1.0" encoding="UTF-8" ?>
<!DOCTYPE svg PUBLIC "-//W3C//DTD SVG 1.1//EN" "http://www.w3.org/Graphics/SVG/1.1/DTD/svg11.dtd">
<svg width="500pt" height="500pt" viewBox="0 0 500 500" version="1.1" xmlns="http://www.w3.org/2000/svg">
<g id="#000000ff">
<path fill="#000000" opacity="1.00" d=" M 203.01 30.14 C 214.56 27.82 226.29 26.51 238.02 25.59 C 278.38 23.53 319.23 32.49 355.02 51.23 C 360.07 53.94 364.79 57.27 370.09 59.50 C 368.42 58.98 366.79 58.30 365.28 57.42 C 341.96 43.14 315.78 33.80 288.91 28.94 C 261.14 24.24 232.37 24.09 204.84 30.45 C 186.74 33.53 169.36 39.87 152.76 47.60 C 144.75 50.79 137.95 56.40 129.94 59.51 C 137.20 56.25 143.66 51.45 150.93 48.18 C 157.70 45.31 164.26 41.94 171.25 39.61 C 181.51 35.42 192.35 33.01 203.01 30.14 Z" />
<path fill="#000000" opacity="1.00" d=" M 233.80 30.02 C 234.45 29.84 235.10 29.65 235.75 29.44 C 234.78 29.82 233.81 30.20 232.85 30.59 C 232.40 31.35 231.94 32.12 231.49 32.88 C 229.90 32.48 228.88 33.89 227.86 34.79 C 221.51 41.63 218.11 50.88 218.36 60.20 C 198.12 63.06 178.66 70.12 160.41 79.17 C 155.15 81.71 150.47 85.43 145.00 87.47 C 150.13 85.01 154.88 81.84 159.91 79.19 C 178.21 69.94 197.80 63.18 218.06 59.85 C 218.37 53.75 219.15 47.48 222.45 42.18 C 224.33 37.92 227.87 34.85 230.71 31.30 C 229.47 30.89 228.21 30.73 226.92 30.81 C 185.84 34.95 146.05 50.89 113.67 76.54 C 108.95 80.58 103.61 84.05 99.90 89.12 L 99.43 88.83 C 112.27 75.93 127.54 65.65 143.27 56.61 C 171.03 41.31 202.21 32.27 233.80 30.02 Z" />
<path fill="#000000" opacity="1.00" d=" M 239.29 32.04 C 246.23 28.48 254.99 28.34 261.84 32.17 L 260.88 31.81 C 254.39 28.76 246.72 28.91 240.19 31.72 C 239.96 31.80 239.51 31.96 239.29 32.04 Z" />
<path fill="#000000" opacity="1.00" d=" M 265.25 29.26 C 268.25 31.18 271.93 29.99 275.25 30.82 C 317.52 35.57 358.37 52.66 390.94 80.07 C 394.24 82.97 398.29 85.42 400.39 89.38 C 399.39 88.13 398.38 86.88 397.25 85.75 C 366.05 57.60 326.58 38.73 285.01 32.42 C 280.13 31.89 275.18 30.25 270.28 31.29 C 273.23 34.78 276.41 38.10 278.73 42.09 L 279.13 42.70 C 276.26 39.64 274.78 35.17 270.89 33.17 C 268.73 32.27 267.38 30.21 265.25 29.26 Z" />
<path fill="#000000" opacity="1.00" d=" M 282.52 60.36 C 282.70 55.09 281.44 49.98 280.51 44.84 C 281.89 49.83 282.73 54.95 282.78 60.14 C 302.58 63.73 321.80 70.34 339.70 79.51 C 344.54 82.06 349.08 85.17 354.06 87.45 C 352.89 87.17 351.76 86.73 350.73 86.11 C 329.91 73.29 306.57 64.64 282.52 60.36 Z" />
<path fill="#000000" opacity="1.00" d=" M 224.98 46.21 C 224.90 46.46 224.74 46.96 224.66 47.21 C 221.62 53.81 222.61 61.40 224.85 68.06 C 224.85 68.22 224.83 68.53 224.82 68.69 C 222.19 61.56 221.26 53.17 224.98 46.21 Z" />
<path fill="#000000" opacity="1.00" d=" M 275.86 46.19 C 281.96 57.21 277.50 71.47 268.33 79.31 C 267.12 80.47 265.53 81.03 263.97 81.49 L 264.45 81.26 C 270.60 78.95 273.68 72.78 276.60 67.35 C 279.10 60.91 279.11 53.48 276.23 47.15 L 275.86 46.19 Z" />
<path fill="#000000" opacity="1.00" d=" M 98.16 84.18 C 106.95 75.97 116.76 68.98 126.46 61.91 C 126.34 62.05 126.11 62.33 125.99 62.48 C 116.33 69.58 106.50 76.56 97.80 84.86 C 96.03 86.59 94.40 88.67 91.97 89.49 C 94.35 88.11 96.30 86.17 98.16 84.18 Z" />
<path fill="#000000" opacity="1.00" d=" M 378.25 65.72 C 376.57 64.57 374.88 63.39 373.54 61.85 C 381.21 67.69 389.26 73.05 396.48 79.49 C 400.71 82.41 403.63 86.87 408.07 89.50 C 404.71 88.30 402.77 85.06 400.12 82.86 C 393.07 76.86 385.98 70.84 378.25 65.72 Z" />
<path fill="#000000" opacity="1.00" d=" M 161.01 83.24 C 179.12 73.48 199.02 67.47 219.16 63.56 C 219.61 66.50 221.14 69.13 221.56 72.08 C 185.66 92.54 149.96 113.34 114.15 133.95 C 112.24 134.69 110.64 137.15 108.46 136.61 C 107.20 134.17 105.52 132.00 103.44 130.20 C 111.94 119.21 122.33 109.80 133.19 101.20 C 135.97 99.09 138.68 96.71 142.02 95.54 C 134.52 99.54 128.40 105.58 121.85 110.90 C 115.59 117.02 109.10 122.99 103.82 130.01 C 105.53 132.03 107.20 134.10 109.21 135.84 C 109.52 135.84 110.15 135.83 110.46 135.82 C 146.84 114.85 183.22 93.83 219.60 72.86 C 223.15 71.19 219.36 67.22 218.96 64.63 C 212.62 64.70 206.53 66.55 200.43 68.06 C 182.30 73.06 164.59 80.21 148.93 90.73 L 148.27 91.20 C 151.94 87.71 156.77 85.91 161.01 83.24 Z" />
<path fill="#000000" opacity="1.00" d=" M 281.71 64.39 C 294.21 65.86 306.20 70.07 318.08 74.07 C 347.92 85.96 375.21 105.01 395.47 130.05 C 393.70 132.24 391.70 134.25 390.09 136.58 C 358.21 117.71 325.90 99.53 293.90 80.84 C 289.36 78.40 285.08 75.43 280.25 73.55 C 278.70 72.75 279.22 70.84 279.30 69.45 C 280.79 68.15 281.27 66.24 281.71 64.39 M 281.97 64.62 C 281.47 66.33 280.91 68.07 279.64 69.39 C 279.79 73.69 284.21 75.06 287.33 76.84 C 321.60 96.66 355.94 116.36 390.17 136.25 C 391.63 134.02 393.34 131.98 395.22 130.08 C 378.64 109.51 357.11 93.18 333.65 81.17 C 317.30 73.37 299.93 67.26 281.97 64.62 Z" />
<path fill="#000000" opacity="1.00" d=" M 228.71 75.33 C 228.70 75.02 228.69 74.39 228.68 74.08 C 230.10 77.32 233.05 79.48 235.99 81.27 C 243.30 85.82 252.93 86.91 260.84 83.24 L 261.71 82.92 C 250.77 88.87 236.41 84.64 228.71 75.33 Z" />
<path fill="#000000" opacity="1.00" d=" M 110.15 116.21 C 118.74 107.10 128.86 99.67 138.51 91.78 C 137.06 94.15 134.35 95.27 132.29 97.01 C 121.70 105.40 111.27 114.20 102.88 124.86 C 101.65 126.24 99.93 128.41 97.96 126.81 C 92.83 123.77 86.89 122.26 80.92 122.61 C 76.45 122.65 72.30 124.45 68.03 125.54 C 67.13 126.36 66.23 127.19 65.34 128.03 C 66.40 126.87 67.47 125.72 68.53 124.56 C 70.28 120.29 73.68 117.03 76.31 113.30 C 80.05 108.88 83.38 103.71 88.34 100.61 C 82.19 105.47 77.72 111.98 72.89 118.06 C 71.13 120.19 69.62 122.52 68.58 125.10 C 74.74 123.13 81.24 121.49 87.73 122.79 C 92.14 123.20 95.80 125.83 99.88 127.25 C 103.97 124.24 106.36 119.54 110.15 116.21 Z" />
<path fill="#000000" opacity="1.00" d=" M 362.22 93.75 C 361.50 93.20 360.98 92.46 360.45 91.74 C 363.85 95.03 367.90 97.52 371.52 100.53 C 378.94 106.72 386.30 113.02 392.67 120.30 C 394.65 122.67 396.35 125.43 399.19 126.89 C 402.68 126.50 405.46 123.80 408.96 123.23 C 416.85 121.08 425.02 123.04 432.38 126.10 C 431.18 123.63 429.69 121.34 427.97 119.22 C 422.86 112.74 418.18 105.76 411.63 100.60 C 416.93 103.96 420.49 109.51 424.46 114.29 C 427.16 118.25 430.82 121.66 432.58 126.19 C 433.35 126.99 434.14 127.79 434.95 128.55 C 425.65 121.55 411.83 120.45 401.73 126.48 C 400.62 126.87 399.05 128.44 398.03 127.14 C 387.98 114.17 375.41 103.41 362.22 93.75 Z" />
<path fill="#000000" opacity="1.00" d=" M 88.53 92.97 C 87.61 95.38 85.56 97.07 83.80 98.86 C 75.53 107.58 68.48 117.35 61.49 127.09 C 61.33 127.17 61.01 127.33 60.85 127.40 C 62.97 124.92 64.85 122.25 66.69 119.56 C 71.10 113.10 76.28 107.22 81.26 101.20 C 83.69 98.46 86.64 96.17 88.53 92.97 Z" />
<path fill="#000000" opacity="1.00" d=" M 418.13 100.86 C 415.94 98.23 412.77 96.29 411.47 93.01 C 413.37 96.21 416.36 98.49 418.80 101.24 C 423.91 107.45 429.23 113.50 433.75 120.17 C 435.45 122.69 437.23 125.16 439.20 127.48 C 437.48 126.02 436.22 124.13 434.96 122.29 C 429.93 114.71 424.01 107.78 418.13 100.86 Z" />
<path fill="#000000" opacity="1.00" d=" M 449.39 145.76 C 446.83 140.76 443.29 136.24 441.46 130.90 C 445.44 139.50 451.22 147.18 454.63 156.08 C 467.84 184.13 474.78 215.02 475.64 245.98 C 476.26 280.32 469.22 314.88 454.61 346.00 C 451.19 354.84 445.45 362.51 441.48 371.07 C 444.74 362.83 450.46 355.79 453.72 347.53 C 469.98 313.21 477.41 274.72 474.99 236.82 C 472.98 205.11 464.17 173.88 449.39 145.76 Z" />
<path fill="#000000" opacity="1.00" d=" M 72.68 139.85 C 76.38 139.00 79.50 136.73 82.55 134.58 C 85.55 136.74 88.64 139.01 92.31 139.87 C 92.61 140.32 93.21 141.23 93.51 141.69 C 94.65 141.96 95.79 142.23 96.94 142.48 C 87.35 142.78 77.73 142.62 68.13 142.54 C 69.26 142.26 70.39 141.98 71.52 141.68 C 71.81 141.22 72.39 140.31 72.68 139.85 M 80.39 136.31 C 78.13 138.29 74.14 138.70 73.20 141.81 C 79.30 142.69 85.72 142.78 91.81 141.81 C 91.33 139.49 88.64 138.91 86.94 137.71 C 84.87 136.71 82.54 133.87 80.39 136.31 Z" />
<path fill="#000000" opacity="1.00" d=" M 51.50 142.83 C 50.96 144.77 50.13 146.63 49.22 148.43 C 33.88 178.59 25.37 212.18 24.61 246.01 C 23.91 277.36 29.90 308.86 41.95 337.81 C 44.85 345.02 48.76 351.80 51.47 359.07 C 49.60 354.28 46.82 349.91 45.01 345.09 C 17.75 286.82 17.49 216.69 44.41 158.25 C 46.45 152.96 49.37 148.08 51.50 142.83 Z" />
<path fill="#000000" opacity="1.00" d=" M 68.17 146.47 C 77.73 146.32 87.29 146.31 96.86 146.50 C 92.29 155.05 86.87 163.21 82.49 171.82 C 78.17 163.12 72.65 155.08 68.17 146.47 M 68.44 146.76 C 71.38 152.27 74.91 157.43 77.84 162.95 C 79.19 165.41 80.79 167.83 82.78 169.80 C 87.81 162.41 92.00 154.46 96.55 146.77 C 87.18 146.56 77.81 146.52 68.44 146.76 Z" />
<path fill="#000000" opacity="1.00" d=" M 412.00 147.74 C 415.63 147.16 419.33 147.12 422.96 147.73 C 423.80 151.20 425.76 154.49 425.43 158.16 C 422.54 159.64 420.31 162.61 417.19 163.42 C 414.47 161.88 412.17 159.72 409.49 158.13 C 409.37 154.49 411.12 151.19 412.00 147.74 M 412.25 148.17 C 410.99 151.31 409.85 154.55 409.60 157.95 C 412.50 159.42 414.73 162.42 417.88 163.14 C 420.52 161.64 422.74 159.51 425.35 157.94 C 425.23 154.57 423.99 151.39 422.76 148.29 C 419.60 147.04 415.54 147.30 412.25 148.17 Z" />
<path fill="#000000" opacity="1.00" d=" M 50.62 153.07 C 49.82 160.97 53.42 168.62 57.90 174.93 C 60.23 178.35 63.97 180.23 67.27 182.53 C 67.92 183.70 67.31 184.96 66.97 186.11 C 53.49 223.10 52.02 264.22 62.26 302.20 C 63.51 308.05 66.33 313.49 67.42 319.36 C 64.51 321.45 61.17 323.05 58.86 325.88 C 53.62 332.34 50.19 340.45 50.51 348.88 C 50.44 347.16 49.76 345.69 48.48 344.57 C 43.47 331.63 38.22 318.69 35.04 305.14 C 27.04 273.18 26.17 239.48 32.75 207.19 C 35.74 191.02 41.29 175.47 47.39 160.25 C 47.80 157.50 50.41 155.88 50.62 153.07 M 46.33 163.64 C 33.12 195.10 26.90 229.57 28.97 263.64 C 30.44 291.05 37.23 318.07 48.40 343.11 C 49.01 343.87 49.94 343.66 50.72 343.32 C 51.19 337.37 54.29 332.10 57.51 327.24 C 59.91 323.58 63.87 321.51 67.39 319.11 C 51.56 276.24 51.27 227.83 67.11 184.92 C 68.32 182.69 65.60 181.76 64.21 180.74 C 55.98 176.12 52.73 166.59 49.75 158.23 C 47.39 158.76 47.37 161.87 46.33 163.64 Z" />
<path fill="#000000" opacity="1.00" d=" M 453.17 163.24 C 453.09 162.99 452.93 162.51 452.85 162.27 C 455.74 167.26 457.51 172.80 459.37 178.24 C 475.86 225.36 475.70 278.09 458.91 325.10 C 457.14 330.10 455.59 335.27 452.70 339.76 L 453.13 338.81 C 464.28 314.45 469.73 287.70 471.25 261.03 C 472.38 232.73 468.36 204.14 458.88 177.42 C 457.26 172.58 455.55 167.76 453.17 163.24 Z" />
<path fill="#000000" opacity="1.00" d=" M 437.53 178.62 C 440.23 176.62 441.68 173.42 444.27 171.29 L 443.77 171.92 C 441.94 174.04 440.38 176.38 438.29 178.25 C 436.18 180.02 433.67 181.24 431.61 183.07 C 432.19 187.05 434.01 190.70 435.14 194.53 C 447.29 234.13 446.48 277.69 432.35 316.67 C 432.29 317.21 432.19 318.29 432.14 318.82 C 434.11 321.27 437.17 322.42 439.30 324.70 C 440.88 326.37 442.21 328.26 443.67 330.05 L 444.17 330.71 C 441.52 328.32 439.93 324.94 436.94 322.90 C 435.26 321.51 433.19 320.74 431.39 319.57 C 431.84 316.05 433.74 312.75 434.65 309.29 C 446.53 271.41 446.38 229.83 434.11 192.07 C 433.34 188.94 431.15 185.87 431.68 182.59 C 433.54 181.13 435.67 180.08 437.53 178.62 Z" />
<path fill="#000000" opacity="1.00" d=" M 71.69 184.54 C 74.60 185.45 77.58 186.09 80.59 186.51 C 80.62 229.49 80.64 272.46 80.60 315.44 C 77.40 316.02 74.23 316.75 71.04 317.37 C 65.63 301.36 61.32 284.86 60.21 267.94 C 58.51 254.01 59.43 239.94 61.13 226.07 C 63.02 211.88 66.56 197.90 71.69 184.54 M 71.66 185.03 C 55.80 227.17 55.44 275.07 71.50 317.20 C 74.42 316.44 77.36 315.77 80.34 315.26 C 80.40 272.41 80.40 229.55 80.33 186.69 C 77.42 186.20 74.54 185.63 71.66 185.03 Z" />
<path fill="#000000" opacity="1.00" d=" M 419.42 186.52 C 422.08 185.91 424.72 185.24 427.37 184.55 C 440.83 219.91 443.27 259.32 434.30 296.07 C 432.74 303.33 430.05 310.26 427.99 317.37 C 425.13 316.81 422.29 316.18 419.45 315.53 C 419.30 272.53 419.37 229.52 419.42 186.52 M 419.69 186.65 C 419.60 229.56 419.54 272.48 419.71 315.39 C 422.32 315.90 424.89 316.52 427.46 317.21 C 443.61 275.11 443.15 227.16 427.37 185.00 C 424.79 185.48 422.23 186.02 419.69 186.65 Z" />
<path fill="#000000" opacity="1.00" d=" M 84.46 186.40 C 85.39 186.52 86.34 186.65 87.28 186.79 C 86.63 186.78 85.34 186.78 84.69 186.78 C 84.63 229.59 84.43 272.41 84.80 315.21 C 85.39 315.21 86.56 315.23 87.15 315.23 C 86.27 315.37 85.40 315.51 84.53 315.66 C 84.22 272.58 84.35 229.48 84.46 186.40 Z" />
<path fill="#000000" opacity="1.00" d=" M 249.78 202.79 C 250.61 202.78 251.43 202.77 252.26 202.77 C 255.49 206.04 259.71 207.97 263.55 210.39 C 272.78 215.94 281.97 221.55 291.23 227.04 C 292.26 227.65 293.61 228.49 293.25 229.95 C 293.27 244.30 293.26 258.64 293.26 272.99 C 293.62 274.53 292.16 275.35 291.10 276.05 C 278.06 284.06 265.12 292.23 252.09 300.25 C 250.67 301.54 248.93 300.39 247.61 299.58 C 234.44 291.18 220.85 283.42 207.77 274.88 C 207.73 259.29 207.70 243.71 207.79 228.13 C 220.02 221.34 231.95 214.02 244.10 207.08 C 246.21 205.95 248.07 204.45 249.78 202.79 M 228.05 232.83 C 243.00 232.66 257.96 232.74 272.91 232.79 C 265.29 224.43 258.67 215.20 251.07 206.82 C 242.94 215.07 235.98 224.39 228.05 232.83 M 273.43 228.49 C 274.81 230.00 276.02 231.92 278.01 232.70 C 280.74 231.56 283.23 229.92 285.79 228.44 C 285.72 228.25 285.57 227.86 285.50 227.67 C 277.08 222.45 268.47 217.53 260.10 212.23 C 264.49 217.69 269.08 222.99 273.43 228.49 M 213.88 228.80 C 217.43 229.74 220.91 232.01 224.63 231.64 C 230.28 225.59 235.44 219.08 240.98 212.92 C 231.91 218.14 222.83 223.36 213.88 228.80 M 279.42 236.00 C 282.91 245.40 286.14 254.90 289.74 264.27 C 289.79 252.84 289.66 241.42 289.80 230.00 C 286.41 232.12 282.90 234.04 279.42 236.00 M 211.22 231.35 C 211.45 243.01 210.95 254.69 211.48 266.33 C 215.02 255.91 219.35 245.77 222.95 235.37 C 219.00 234.14 215.05 232.90 211.22 231.35 M 227.86 236.23 C 235.22 249.16 242.94 261.88 250.44 274.72 C 250.73 274.71 251.32 274.67 251.61 274.65 C 259.04 261.85 266.19 248.87 273.87 236.22 C 258.53 236.30 243.19 236.26 227.86 236.23 M 276.46 237.98 C 270.32 249.51 263.43 260.62 257.05 272.01 C 255.77 274.52 253.85 276.75 253.22 279.54 C 265.06 276.96 276.97 274.64 288.88 272.41 C 284.96 260.86 280.63 249.45 276.46 237.98 M 212.04 273.70 C 224.31 275.58 236.66 276.98 248.96 278.73 C 240.95 265.57 233.15 252.29 225.50 238.93 C 220.78 250.42 216.75 262.20 212.04 273.70 M 252.25 282.97 C 252.27 287.36 252.26 291.75 252.23 296.14 C 262.54 289.87 272.63 283.25 283.05 277.17 C 272.70 278.59 262.56 281.26 252.25 282.97 M 218.99 278.16 C 229.09 283.87 238.80 290.23 248.76 296.16 C 248.74 291.44 248.71 286.72 248.78 282.01 C 238.83 280.87 228.94 279.28 218.99 278.16 Z" />
<path fill="#000000" opacity="1.00" d=" M 71.24 322.03 C 78.19 318.50 86.98 318.26 93.83 322.18 L 92.86 321.80 C 86.38 318.70 78.69 318.92 72.15 321.72 C 71.92 321.80 71.47 321.95 71.24 322.03 Z" />
<path fill="#000000" opacity="1.00" d=" M 405.32 321.76 C 412.39 318.57 420.88 318.37 427.80 322.09 C 427.54 322.01 427.02 321.83 426.76 321.74 C 415.84 316.75 401.54 320.64 394.70 330.49 L 394.33 331.00 C 396.42 326.46 400.99 323.82 405.32 321.76 Z" />
<path fill="#000000" opacity="1.00" d=" M 406.14 343.92 C 409.71 338.08 412.60 331.80 416.53 326.19 C 423.81 337.58 429.49 349.93 436.95 361.19 C 436.85 361.29 436.64 361.48 436.54 361.58 C 430.15 350.43 423.98 339.16 417.53 328.05 C 417.20 328.05 416.52 328.06 416.18 328.07 C 413.69 330.19 412.54 333.36 410.86 336.08 C 405.97 344.52 401.27 353.06 396.46 361.54 C 396.35 361.46 396.13 361.30 396.02 361.22 C 400.00 355.83 402.64 349.61 406.14 343.92 Z" />
<path fill="#000000" opacity="1.00" d=" M 64.46 329.44 C 76.48 329.37 88.50 329.37 100.52 329.42 C 100.70 341.47 100.60 353.53 100.57 365.58 C 88.53 365.60 76.49 365.69 64.46 365.54 C 64.31 353.51 64.38 341.47 64.46 329.44 M 64.69 329.65 C 64.63 341.54 64.59 353.43 64.67 365.32 C 76.57 365.42 88.47 365.35 100.36 365.37 C 100.33 353.46 100.43 341.55 100.30 329.64 C 88.43 329.63 76.56 329.65 64.69 329.65 Z" />
<path fill="#000000" opacity="1.00" d=" M 68.46 333.39 C 77.81 333.34 87.17 333.38 96.53 333.43 C 96.74 342.80 96.66 352.17 96.57 361.55 C 87.19 361.67 77.81 361.64 68.42 361.57 C 68.37 352.17 68.31 342.78 68.46 333.39 M 68.70 333.63 C 68.56 342.86 68.60 352.09 68.68 361.32 C 77.89 361.39 87.11 361.46 96.33 361.29 C 96.41 352.09 96.49 342.88 96.29 333.68 C 87.10 333.60 77.90 333.60 68.70 333.63 Z" />
<path fill="#000000" opacity="1.00" d=" M 448.45 350.89 C 449.01 345.45 447.24 340.20 446.57 334.87 C 447.29 338.01 447.73 341.23 448.76 344.30 C 448.89 345.22 449.72 345.65 450.48 345.99 C 450.71 344.97 451.16 342.93 451.38 341.91 C 451.20 343.44 451.13 344.98 451.18 346.52 C 450.72 346.71 449.81 347.10 449.36 347.29 C 449.04 348.48 448.73 349.68 448.45 350.89 Z" />
<path fill="#000000" opacity="1.00" d=" M 57.06 336.26 C 56.98 336.49 56.81 336.95 56.73 337.17 C 53.85 343.70 53.82 351.40 56.78 357.91 C 59.18 363.54 63.01 369.35 69.06 371.41 C 65.65 371.06 63.42 368.16 61.19 365.88 C 54.65 357.76 51.87 345.78 57.06 336.26 Z" />
<path fill="#000000" opacity="1.00" d=" M 107.87 336.22 C 111.72 343.10 111.47 351.79 108.00 358.79 C 108.09 358.52 108.26 357.99 108.35 357.72 C 111.13 351.17 111.22 343.56 108.20 337.08 L 107.87 336.22 Z" />
<path fill="#000000" opacity="1.00" d=" M 391.02 336.19 C 390.93 336.45 390.77 336.97 390.69 337.23 C 387.91 343.77 387.79 351.34 390.75 357.84 C 390.83 358.06 390.99 358.50 391.07 358.73 C 387.33 351.80 387.55 343.18 391.02 336.19 Z" />
<path fill="#000000" opacity="1.00" d=" M 441.97 336.24 C 445.58 343.15 445.59 351.81 441.94 358.70 C 442.03 358.47 442.19 358.02 442.28 357.79 C 445.15 351.29 445.17 343.69 442.30 337.19 L 441.97 336.24 Z" />
<path fill="#000000" opacity="1.00" d=" M 108.44 365.41 C 108.73 365.40 109.30 365.37 109.59 365.36 C 141.47 383.95 173.54 402.22 205.45 420.77 C 210.92 423.68 216.08 427.15 221.66 429.88 C 220.66 433.02 219.93 436.22 219.13 439.40 C 202.16 436.11 185.38 431.39 169.65 424.14 C 148.27 413.92 128.54 400.09 112.20 382.88 C 108.58 379.78 106.17 375.58 102.59 372.45 C 105.01 370.52 107.10 368.22 108.44 365.41 M 109.19 366.12 C 107.09 368.10 105.39 370.47 103.08 372.24 C 117.36 389.67 134.86 404.53 154.40 415.77 C 173.61 427.40 195.25 434.63 217.26 438.67 C 217.65 438.47 218.42 438.06 218.80 437.85 C 219.98 435.35 220.61 432.65 221.48 430.04 C 211.60 424.79 202.07 418.89 192.32 413.41 C 165.10 397.61 137.73 382.06 110.58 366.14 C 110.23 366.14 109.54 366.13 109.19 366.12 Z" />
<path fill="#000000" opacity="1.00" d=" M 376.27 373.62 C 380.80 370.74 385.66 368.40 390.12 365.40 C 391.90 368.04 393.97 370.49 396.43 372.52 C 392.98 375.40 390.73 379.40 387.33 382.35 C 370.49 400.09 350.19 414.51 327.99 424.76 C 313.19 431.10 297.70 436.42 281.71 438.60 C 281.80 435.41 279.14 432.68 279.65 429.59 C 282.24 427.44 285.37 426.10 288.24 424.38 C 317.58 407.45 346.89 390.49 376.27 373.62 M 281.73 428.34 C 280.52 429.01 278.84 430.37 279.96 431.89 C 280.88 433.97 281.61 436.13 281.94 438.40 C 290.78 437.28 299.43 434.85 307.90 432.13 C 338.32 422.72 365.76 404.66 387.67 381.70 C 390.74 378.97 392.79 375.30 395.96 372.68 C 393.82 370.53 391.75 368.29 390.12 365.73 C 354.08 386.76 317.87 407.49 281.73 428.34 Z" />
<path fill="#000000" opacity="1.00" d=" M 71.27 372.95 C 71.51 373.03 72.00 373.19 72.24 373.27 C 78.71 376.15 86.29 376.16 92.76 373.28 C 93.01 373.20 93.49 373.02 93.73 372.94 C 86.84 376.60 78.17 376.57 71.27 372.95 Z" />
<path fill="#000000" opacity="1.00" d=" M 418.04 379.39 C 424.03 378.88 430.41 377.37 435.07 373.38 C 434.22 374.15 433.39 374.94 432.59 375.75 C 431.88 377.55 430.95 379.26 429.75 380.78 C 424.69 387.34 419.88 394.15 413.88 399.90 C 413.22 400.56 412.43 401.06 411.58 401.43 C 417.02 397.24 421.07 391.61 425.30 386.28 C 427.80 382.97 430.53 379.79 432.34 376.03 C 429.05 377.05 425.83 378.37 422.46 379.11 C 418.57 379.89 414.59 379.47 410.66 379.57 C 406.96 378.17 403.28 376.67 399.80 374.79 C 392.60 382.24 386.23 390.56 377.97 396.94 C 372.60 401.95 366.55 406.13 360.87 410.76 L 360.31 411.23 C 362.60 408.50 365.81 406.85 368.49 404.56 C 375.30 399.07 382.10 393.53 388.13 387.16 C 391.87 383.82 394.58 379.54 398.15 376.04 C 398.81 375.65 399.35 374.27 400.27 374.81 C 402.88 375.85 405.20 377.80 408.09 378.04 C 411.45 378.28 414.62 379.90 418.04 379.39 Z" />
<path fill="#000000" opacity="1.00" d=" M 60.88 374.51 C 61.04 374.63 61.35 374.89 61.51 375.01 C 68.40 384.50 75.29 394.07 83.32 402.66 C 85.19 404.62 87.50 406.35 88.48 408.98 C 85.79 404.64 81.45 401.70 78.54 397.53 C 72.06 390.31 66.69 382.24 60.88 374.51 Z" />
<path fill="#000000" opacity="1.00" d=" M 65.38 374.07 C 66.27 374.88 67.16 375.67 68.06 376.47 C 74.39 378.44 81.00 380.40 87.69 379.02 C 91.85 378.48 95.59 376.53 99.19 374.50 C 103.41 378.12 106.33 382.93 110.39 386.70 C 118.34 394.85 127.11 402.17 136.28 408.92 C 137.15 409.61 137.93 410.42 138.69 411.24 L 138.11 410.76 C 128.62 403.36 119.02 395.99 110.65 387.29 C 106.49 383.44 103.45 378.56 99.20 374.80 C 93.72 378.04 87.44 380.09 81.01 379.63 C 76.70 379.47 72.62 377.96 68.48 376.91 C 70.08 380.82 72.95 383.94 75.48 387.25 C 79.35 392.16 83.09 397.30 88.12 401.11 L 87.90 401.61 C 81.14 395.46 75.80 388.01 70.25 380.80 C 69.50 379.77 69.01 378.58 68.48 377.43 C 67.46 376.29 66.42 375.18 65.38 374.07 Z" />
<path fill="#000000" opacity="1.00" d=" M 434.57 380.28 C 435.95 378.26 437.27 376.14 439.15 374.53 C 436.87 377.23 434.90 380.15 432.90 383.05 C 428.57 389.28 423.56 394.97 418.75 400.81 C 416.33 403.57 413.32 405.83 411.46 409.05 C 412.74 405.73 415.95 403.78 418.14 401.13 C 423.87 394.39 429.65 387.65 434.57 380.28 Z" />
<path fill="#000000" opacity="1.00" d=" M 92.02 412.46 C 96.68 414.80 99.45 419.59 103.70 422.53 C 131.46 446.07 164.84 463.01 200.41 470.87 C 241.85 480.37 285.97 477.62 325.97 463.22 C 353.26 453.53 378.50 438.32 400.19 419.15 C 402.75 416.86 404.76 413.73 408.10 412.48 C 402.93 415.72 399.48 421.00 394.36 424.35 C 350.15 461.46 291.22 480.54 233.65 475.99 C 186.73 472.78 141.08 454.20 105.12 423.92 C 100.29 420.63 96.88 415.71 92.02 412.46 Z" />
<path fill="#000000" opacity="1.00" d=" M 110.67 423.32 C 106.92 419.87 102.18 417.17 99.59 412.66 C 100.60 413.90 101.64 415.13 102.78 416.27 C 136.92 447.17 181.10 466.66 226.93 471.18 C 228.21 471.26 229.48 471.10 230.72 470.71 C 229.67 469.00 228.09 467.72 226.76 466.24 C 221.26 459.79 218.17 451.48 218.06 443.00 C 198.70 440.39 180.17 433.44 162.56 425.16 C 156.54 422.28 151.05 418.40 144.99 415.59 C 150.74 417.63 155.58 421.63 161.12 424.19 C 179.18 433.07 198.39 439.96 218.37 442.81 C 218.26 451.79 221.82 460.57 227.83 467.18 C 228.84 468.08 229.86 469.47 231.44 469.11 C 231.93 469.86 232.42 470.63 232.90 471.40 C 233.87 471.80 234.85 472.22 235.83 472.63 C 231.97 471.06 227.70 471.94 223.69 471.05 C 182.48 466.31 142.76 449.62 110.67 423.32 Z" />
<path fill="#000000" opacity="1.00" d=" M 366.92 439.14 C 378.61 431.41 390.38 423.44 400.04 413.21 L 400.65 412.60 C 398.49 415.65 395.67 418.16 392.75 420.47 C 370.10 439.67 343.59 454.36 315.12 462.90 C 299.77 467.45 283.94 470.97 267.90 471.54 C 266.97 471.89 266.05 472.27 265.16 472.70 C 276.45 467.48 282.87 454.72 282.52 442.59 C 301.11 439.63 318.99 433.25 335.93 425.17 C 342.20 422.39 347.65 418.02 354.02 415.50 L 353.55 415.74 C 346.16 419.43 339.37 424.28 331.66 427.34 C 316.13 434.58 299.69 439.91 282.79 442.81 C 283.00 453.78 277.70 464.68 268.84 471.18 C 274.00 471.40 279.09 470.54 284.13 469.55 C 313.48 465.50 341.79 454.76 366.92 439.14 Z" />
<path fill="#000000" opacity="1.00" d=" M 239.28 419.05 C 246.18 415.45 254.98 415.33 261.80 419.17 L 260.92 418.82 C 254.43 415.76 246.71 415.88 240.17 418.73 C 239.94 418.81 239.50 418.97 239.28 419.05 Z" />
<path fill="#000000" opacity="1.00" d=" M 248.79 423.48 C 249.93 423.47 251.07 423.47 252.22 423.48 C 253.75 427.14 256.26 430.25 258.23 433.67 C 262.28 440.46 266.31 447.27 270.49 453.98 C 269.61 455.14 268.88 456.46 267.77 457.44 C 262.70 459.92 257.06 461.19 252.22 464.19 C 251.03 464.91 249.48 464.83 248.21 464.39 C 241.98 461.69 235.87 458.63 229.37 456.61 C 229.26 455.30 228.94 453.80 229.69 452.63 C 235.93 442.84 242.82 433.45 248.79 423.48 M 248.97 423.73 C 242.76 434.07 235.34 443.66 229.30 454.09 L 230.56 454.41 C 230.52 454.74 230.45 455.41 230.42 455.74 C 233.85 458.38 238.09 459.55 241.97 461.36 C 245.23 462.50 248.24 465.02 251.89 464.29 C 256.60 460.70 262.84 459.96 267.91 457.01 C 268.73 456.06 269.50 455.08 270.22 454.05 C 264.21 443.93 257.87 433.98 252.06 423.75 C 251.29 423.75 249.74 423.74 248.97 423.73 Z" />
<path fill="#000000" opacity="1.00" d=" M 225.02 455.80 C 221.53 448.87 221.74 440.15 225.04 433.22 L 224.69 434.16 C 222.57 440.74 221.82 448.32 224.68 454.81 C 224.77 455.06 224.93 455.56 225.02 455.80 Z" />
<path fill="#000000" opacity="1.00" d=" M 275.96 433.23 C 279.58 440.20 279.58 448.80 275.99 455.79 C 276.08 455.54 276.25 455.03 276.33 454.77 C 279.18 448.24 279.14 440.70 276.29 434.17 L 275.96 433.23 Z" />
<path fill="#000000" opacity="1.00" d=" M 228.70 462.32 C 228.69 462.00 228.68 461.37 228.67 461.05 C 230.29 464.53 233.41 467.17 237.02 468.42 C 233.40 467.88 231.10 464.76 228.70 462.32 Z" />
<path fill="#000000" opacity="1.00" d=" M 272.30 461.58 L 272.65 461.11 C 270.83 464.46 267.87 467.66 263.99 468.43 C 267.54 467.30 270.25 464.60 272.30 461.58 Z" />
<path fill="#000000" opacity="1.00" d=" M 239.29 469.86 L 240.14 470.20 C 246.61 473.22 254.29 473.19 260.79 470.26 C 261.05 470.18 261.56 470.02 261.81 469.95 C 254.88 473.51 246.13 473.74 239.29 469.86 Z" />
</g>
<g id="#00000068">
<path fill="#000000" opacity="0.41" d=" M 245.03 37.04 C 246.84 34.86 250.09 31.89 252.89 34.32 C 259.31 39.87 266.62 44.33 272.92 50.02 C 265.53 45.62 258.91 39.96 252.13 34.67 C 249.55 33.17 247.29 36.13 245.03 37.04 Z" />
<path fill="#000000" opacity="0.41" d=" M 249.97 39.95 C 251.40 38.21 252.67 40.54 253.17 41.80 C 252.58 41.41 251.40 40.65 250.81 40.26 C 246.58 44.61 243.32 49.78 239.14 54.17 C 239.17 54.54 239.25 55.27 239.28 55.63 C 243.20 56.44 247.08 57.39 250.99 58.23 C 254.56 57.69 257.96 56.36 261.56 55.91 C 260.80 54.27 260.03 52.64 259.14 51.07 C 260.22 52.56 263.26 54.24 262.16 56.22 C 257.45 57.14 252.67 59.65 247.83 58.24 C 244.28 57.41 240.69 56.72 237.18 55.70 C 241.32 50.36 245.64 45.13 249.97 39.95 Z" />
<path fill="#000000" opacity="0.41" d=" M 238.18 67.94 C 242.60 70.85 246.04 75.12 249.99 78.49 C 254.57 76.09 257.52 71.62 261.83 68.89 C 258.30 73.05 254.23 76.81 249.66 79.81 C 246.23 75.47 241.67 72.22 238.18 67.94 Z" />
<path fill="#000000" opacity="0.41" d=" M 393.88 137.85 C 395.25 135.36 397.31 133.31 399.81 131.97 C 397.97 134.06 395.99 136.03 393.88 137.85 Z" />
<path fill="#000000" opacity="0.41" d=" M 139.15 246.26 C 142.19 242.34 143.79 237.51 147.13 233.81 C 146.23 237.42 143.40 240.95 145.00 244.78 C 143.98 246.82 142.78 248.81 142.21 251.05 C 142.86 254.15 145.04 256.68 146.49 259.46 C 150.97 267.55 155.71 275.51 160.09 283.66 C 159.55 283.51 158.46 283.21 157.92 283.07 C 157.52 284.04 157.12 285.02 156.71 286.00 C 150.49 276.17 145.44 265.64 139.21 255.82 C 138.45 256.73 137.70 257.64 136.97 258.56 C 136.05 259.65 135.11 260.72 134.16 261.79 C 134.20 259.60 134.37 257.36 135.44 255.40 C 136.11 253.49 137.75 251.45 136.59 249.41 C 135.47 246.71 134.15 244.01 134.27 241.01 C 135.21 241.73 136.13 242.47 137.05 243.23 C 137.74 244.24 138.45 245.25 139.15 246.26 Z" />
<path fill="#000000" opacity="0.41" d=" M 356.05 239.59 C 357.90 242.30 359.70 245.05 361.24 247.96 C 362.14 246.43 363.04 244.89 363.92 243.34 C 364.96 242.24 366.05 241.18 367.14 240.13 C 366.62 243.19 366.07 246.27 365.03 249.22 C 364.73 249.64 364.12 250.50 363.82 250.92 C 363.63 251.20 363.25 251.76 363.07 252.04 C 364.14 255.13 366.57 257.86 366.70 261.19 C 366.30 261.51 365.51 262.15 365.11 262.47 C 364.38 260.11 362.87 258.15 361.21 256.38 C 357.03 263.10 353.31 270.10 349.27 276.91 C 348.11 276.11 346.95 275.32 345.80 274.52 C 349.53 267.43 353.81 260.63 357.63 253.59 C 358.78 252.00 357.69 250.20 357.23 248.57 C 357.90 245.51 356.88 242.50 356.05 239.59 Z" />
</g>
<g id="#0000002d">
<path fill="#000000" opacity="0.18" d=" M 227.99 39.98 C 229.26 37.97 231.03 36.28 233.01 34.98 C 233.33 35.17 233.98 35.54 234.30 35.73 C 231.96 37.07 230.05 39.04 228.72 41.39 C 228.54 41.03 228.17 40.33 227.99 39.98 Z" />
<path fill="#000000" opacity="0.18" d=" M 233.84 43.81 C 236.72 42.01 239.31 39.68 242.57 38.54 C 241.40 41.07 238.77 42.23 236.62 43.77 C 234.02 45.40 231.75 47.76 228.61 48.34 C 229.72 46.19 231.89 45.06 233.84 43.81 Z" />
<path fill="#000000" opacity="0.18" d=" M 58.52 130.73 C 58.75 134.53 55.59 137.41 53.90 140.55 C 53.59 140.53 52.98 140.50 52.67 140.48 C 54.51 137.17 56.40 133.88 58.52 130.73 Z" />
<path fill="#000000" opacity="0.18" d=" M 68.62 155.60 C 72.15 158.15 73.84 162.65 75.44 166.58 C 72.08 163.81 70.29 159.53 68.62 155.60 Z" />
<path fill="#000000" opacity="0.18" d=" M 60.04 329.94 C 61.36 328.00 63.05 326.30 64.98 324.98 C 65.32 325.16 66.01 325.51 66.35 325.69 C 64.11 327.13 62.18 329.01 60.75 331.26 C 60.57 330.93 60.22 330.27 60.04 329.94 Z" />
<path fill="#000000" opacity="0.18" d=" M 52.67 361.55 C 52.97 361.53 53.57 361.47 53.87 361.44 C 55.58 364.59 58.75 367.46 58.56 371.27 C 56.39 368.16 54.46 364.89 52.67 361.55 Z" />
<path fill="#000000" opacity="0.18" d=" M 393.74 363.84 C 395.03 364.64 396.13 365.68 397.17 366.78 C 399.04 368.85 402.02 369.70 403.25 372.39 C 399.32 370.78 395.07 368.08 393.74 363.84 Z" />
<path fill="#000000" opacity="0.18" d=" M 228.68 428.36 C 227.04 425.67 231.24 423.56 232.96 421.95 C 233.30 422.14 233.98 422.52 234.32 422.70 C 231.98 424.06 230.05 426.02 228.68 428.36 Z" />
</g>
<g id="#0000002c">
<path fill="#000000" opacity="0.17" d=" M 266.87 35.88 C 267.14 35.60 267.68 35.04 267.95 34.76 C 269.44 36.71 273.82 38.49 272.31 41.31 C 270.98 39.07 269.13 37.18 266.87 35.88 Z" />
<path fill="#000000" opacity="0.17" d=" M 98.98 325.89 C 99.21 325.61 99.69 325.06 99.93 324.78 C 101.74 326.37 103.69 327.89 105.04 329.93 C 104.84 330.27 104.46 330.95 104.27 331.29 C 102.89 329.15 101.11 327.28 98.98 325.89 Z" />
<path fill="#000000" opacity="0.17" d=" M 432.95 325.88 C 433.21 325.61 433.72 325.07 433.97 324.80 C 435.76 326.41 437.68 327.93 439.04 329.95 C 438.86 330.29 438.49 330.97 438.30 331.31 C 436.95 329.11 435.14 327.23 432.95 325.88 Z" />
<path fill="#000000" opacity="0.17" d=" M 266.60 422.66 C 269.35 421.14 271.33 425.20 272.96 426.92 C 272.79 427.28 272.46 427.99 272.29 428.35 C 270.90 426.01 268.94 424.05 266.60 422.66 Z" />
</g>
<g id="#0000005a">
<path fill="#000000" opacity="0.35" d=" M 236.04 47.66 C 238.25 45.99 240.46 44.30 242.87 42.93 C 241.79 45.05 240.32 46.93 238.72 48.67 C 237.83 48.34 236.93 48.00 236.04 47.66 Z" />
<path fill="#000000" opacity="0.35" d=" M 252.51 61.69 C 257.65 60.63 262.80 59.59 267.88 58.24 C 264.74 61.39 261.87 64.97 257.97 67.23 C 259.86 64.99 262.23 63.15 263.69 60.56 C 260.15 60.63 256.71 61.50 253.28 62.32 C 253.10 64.89 251.24 69.81 254.76 70.50 C 253.94 71.29 253.13 72.08 252.32 72.88 C 252.17 69.15 251.91 65.40 252.51 61.69 Z" />
<path fill="#000000" opacity="0.35" d=" M 233.98 59.16 C 239.03 58.89 243.73 61.03 248.70 61.49 C 248.96 65.28 248.93 69.07 248.69 72.86 C 247.43 71.61 246.18 70.35 244.95 69.08 C 245.99 69.44 247.04 69.81 248.10 70.17 C 248.29 67.46 248.26 64.73 248.00 62.03 C 244.20 61.66 240.55 60.56 236.81 59.91 C 238.15 62.90 241.04 64.67 243.06 67.14 C 239.41 65.28 236.91 61.91 233.98 59.16 Z" />
<path fill="#000000" opacity="0.35" d=" M 80.82 130.92 C 82.85 129.42 84.83 131.54 86.60 132.42 C 92.14 135.87 98.25 138.48 103.44 142.44 C 104.19 150.45 103.69 158.60 103.61 166.65 C 96.90 170.97 89.80 174.69 82.91 178.73 C 79.56 177.90 76.91 175.42 73.82 173.96 C 70.64 171.89 67.02 170.54 64.03 168.19 C 70.55 170.43 76.08 174.74 82.15 177.93 C 85.18 177.13 87.61 174.77 90.46 173.47 C 94.53 170.85 99.26 169.13 102.92 165.97 C 103.45 158.38 103.34 150.70 103.00 143.11 C 98.86 139.64 93.68 137.70 89.17 134.76 C 86.82 133.57 84.72 131.78 82.17 131.06 C 76.13 134.29 70.58 138.62 64.02 140.77 C 69.44 137.19 75.35 134.42 80.82 130.92 Z" />
<path fill="#000000" opacity="0.35" d=" M 96.08 130.07 C 99.80 131.66 103.12 134.30 105.15 137.84 C 102.32 135.02 98.97 132.82 96.08 130.07 Z" />
<path fill="#000000" opacity="0.35" d=" M 402.99 135.82 C 407.68 134.39 412.22 132.44 417.00 131.32 C 421.81 132.45 426.39 134.43 431.12 135.88 C 432.10 137.55 433.07 139.24 433.91 141.00 C 432.51 139.67 431.37 138.10 430.46 136.41 C 426.01 134.81 421.49 133.44 417.04 131.86 C 413.33 133.11 409.61 134.34 405.89 135.57 C 403.00 136.15 402.14 139.34 400.02 141.01 C 400.90 139.22 401.93 137.51 402.99 135.82 Z" />
<path fill="#000000" opacity="0.35" d=" M 55.70 145.43 C 57.80 140.20 60.57 134.69 65.82 132.02 C 59.52 137.58 55.07 145.50 54.70 154.00 C 54.44 158.13 56.21 161.99 56.78 166.02 C 53.64 159.70 53.32 152.05 55.70 145.43 Z" />
<path fill="#000000" opacity="0.35" d=" M 98.49 151.22 C 98.88 150.50 99.28 149.78 99.68 149.07 C 99.61 154.24 100.24 159.48 99.48 164.62 C 95.20 167.20 90.86 169.88 86.26 171.93 C 89.29 166.51 92.36 161.07 95.88 155.97 C 94.34 160.88 90.80 164.78 88.70 169.44 C 92.38 168.20 95.73 166.01 99.04 164.02 C 99.41 159.76 99.54 155.40 98.49 151.22 Z" />
<path fill="#000000" opacity="0.35" d=" M 400.01 167.96 C 401.50 169.27 402.66 170.88 403.59 172.63 C 408.02 174.23 412.54 175.54 416.98 177.13 C 421.44 175.59 425.94 174.18 430.38 172.58 C 431.36 170.90 432.55 169.34 433.99 168.02 C 433.10 169.77 432.09 171.46 431.06 173.14 C 426.35 174.58 421.80 176.60 416.98 177.64 C 412.35 176.57 407.87 174.85 403.39 173.27 C 401.84 171.82 400.99 169.81 400.01 167.96 Z" />
<path fill="#000000" opacity="0.35" d=" M 410.27 344.10 C 412.00 341.00 413.60 337.79 415.91 335.06 C 414.26 339.45 411.45 343.26 409.28 347.38 C 407.41 350.15 406.36 353.44 404.11 355.94 C 405.52 351.68 408.15 348.02 410.27 344.10 Z" />
<path fill="#000000" opacity="0.35" d=" M 417.16 334.95 C 421.45 341.71 425.81 348.59 428.87 356.01 C 426.29 352.54 424.59 348.50 422.28 344.85 C 420.56 341.56 418.19 338.57 417.16 334.95 Z" />
<path fill="#000000" opacity="0.35" d=" M 305.01 345.18 C 306.75 342.75 308.20 340.13 309.82 337.62 C 309.64 339.00 309.51 340.40 309.38 341.80 C 310.24 341.55 311.11 341.31 311.98 341.07 C 311.49 342.16 311.02 343.27 310.57 344.39 C 310.42 344.74 310.13 345.43 309.99 345.78 C 313.04 345.95 316.09 346.13 319.14 346.41 C 316.45 350.04 311.44 348.47 307.60 349.38 C 307.42 349.70 307.05 350.33 306.87 350.65 C 306.69 350.98 306.34 351.66 306.17 351.99 C 304.21 353.56 302.20 356.97 299.32 355.25 C 300.40 353.75 301.50 352.25 302.44 350.66 C 302.56 350.32 302.79 349.65 302.90 349.31 C 299.97 349.08 297.04 348.91 294.11 348.78 C 294.47 348.49 295.19 347.92 295.56 347.64 C 295.01 346.98 294.47 346.32 293.93 345.67 C 297.60 345.50 301.40 345.99 305.01 345.18 Z" />
</g>
<g id="#000000e8">
<path fill="#000000" opacity="0.91" d=" M 259.89 45.37 C 261.42 46.55 263.00 47.66 264.65 48.68 L 263.12 48.34 C 263.18 48.96 263.31 50.21 263.37 50.83 C 263.07 49.84 262.78 48.84 262.50 47.84 C 261.63 47.01 260.76 46.19 259.89 45.37 Z" />
<path fill="#000000" opacity="0.91" d=" M 250.46 163.98 C 250.49 161.23 250.24 158.39 251.22 155.76 C 251.61 167.05 252.04 178.35 252.29 189.65 L 252.90 189.72 C 267.97 190.62 282.62 196.99 293.32 207.68 C 296.31 210.42 298.25 214.06 301.12 216.88 C 307.27 214.60 312.80 210.87 318.75 208.12 C 320.83 207.47 322.92 206.89 325.01 206.29 C 323.95 207.54 322.90 208.80 321.81 210.03 C 315.42 213.16 309.28 216.77 303.03 220.18 C 309.79 232.52 312.93 247.08 310.41 261.04 C 309.54 268.02 306.30 274.33 304.02 280.87 C 310.55 285.12 317.28 289.18 324.18 292.83 C 324.32 293.72 324.45 294.62 324.58 295.53 C 324.20 295.69 323.44 296.01 323.06 296.17 C 316.27 291.76 309.13 287.82 301.97 284.07 C 299.87 285.96 298.50 288.47 296.68 290.61 C 285.51 304.01 268.39 311.78 251.04 312.33 L 250.30 312.39 C 250.14 320.03 249.79 327.67 249.43 335.30 C 248.66 334.37 248.27 333.24 248.34 332.03 C 248.11 325.48 247.75 318.94 247.71 312.38 L 247.08 312.27 C 227.82 311.12 209.19 300.87 198.79 284.47 C 191.80 288.37 184.51 291.77 177.79 296.11 C 176.74 295.41 175.69 294.72 174.65 294.03 C 182.31 290.38 189.31 285.51 196.87 281.64 C 188.92 267.35 186.47 249.99 191.15 234.22 C 192.22 229.67 194.80 225.66 195.96 221.15 C 189.81 217.19 183.49 213.37 176.94 210.09 C 176.79 209.62 176.48 208.69 176.32 208.22 C 176.75 207.84 177.59 207.09 178.02 206.71 C 184.62 210.82 191.38 214.81 198.48 218.00 C 209.16 200.79 228.91 190.03 249.08 189.69 L 249.74 189.65 C 249.57 181.08 250.52 172.54 250.46 163.98 M 241.57 193.79 C 228.45 195.78 216.06 202.37 207.21 212.27 C 197.72 222.73 192.02 236.77 192.29 250.96 C 191.96 268.07 200.20 284.95 213.45 295.67 C 226.16 306.27 243.64 310.96 259.93 307.81 C 286.48 303.88 307.91 278.85 307.70 252.01 C 308.51 230.96 296.20 210.41 277.83 200.38 C 266.89 194.20 253.96 192.13 241.57 193.79 Z" />
<path fill="#000000" opacity="0.91" d=" M 264.86 452.76 C 262.70 449.75 260.74 446.59 259.27 443.18 C 261.12 446.38 263.04 449.54 264.86 452.76 Z" />
</g>
<g id="#00000031">
<path fill="#000000" opacity="0.19" d=" M 229.06 49.36 L 229.96 48.60 C 230.46 52.22 230.64 55.94 229.57 59.48 C 232.32 61.96 235.66 64.02 237.41 67.40 C 233.63 66.25 231.79 62.30 228.41 60.46 C 228.85 56.77 228.36 52.97 229.06 49.36 Z" />
<path fill="#000000" opacity="0.19" d=" M 448.05 150.70 C 449.68 153.52 452.55 156.86 451.40 160.26 C 450.67 158.74 450.00 157.19 449.33 155.65 C 448.80 158.55 448.30 161.46 447.67 164.34 C 446.54 162.85 447.31 161.00 447.48 159.35 C 447.95 156.49 447.91 153.58 448.05 150.70 Z" />
<path fill="#000000" opacity="0.19" d=" M 404.56 179.93 C 408.43 180.39 412.12 182.03 416.08 181.87 C 420.33 182.03 424.38 180.59 428.52 179.91 C 425.14 182.80 420.32 182.98 416.09 183.29 C 412.17 182.84 407.63 182.69 404.56 179.93 Z" />
<path fill="#000000" opacity="0.19" d=" M 110.84 335.16 C 110.48 332.52 114.27 330.60 116.43 331.69 C 115.19 332.45 113.96 333.22 112.73 333.99 C 112.26 334.28 111.31 334.87 110.84 335.16 Z" />
<path fill="#000000" opacity="0.19" d=" M 384.27 341.56 C 385.58 342.73 385.01 344.44 384.98 345.95 C 374.01 346.35 362.96 345.33 352.06 347.01 C 351.28 347.48 350.56 348.03 349.90 348.65 C 361.59 349.58 373.34 348.84 385.05 349.24 C 384.94 350.63 385.47 352.31 384.25 353.39 C 384.14 352.57 383.92 350.93 383.81 350.11 C 363.54 349.64 343.28 350.47 323.02 350.32 C 317.64 350.26 312.19 349.50 306.87 350.65 C 307.05 350.33 307.42 349.70 307.60 349.38 C 311.44 348.47 316.45 350.04 319.14 346.41 C 316.09 346.13 313.04 345.95 309.99 345.78 C 310.13 345.43 310.42 344.74 310.57 344.39 C 313.92 345.43 317.44 345.23 320.89 344.99 C 341.90 344.36 362.90 345.54 383.90 345.08 C 383.99 344.20 384.18 342.44 384.27 341.56 Z" />
<path fill="#000000" opacity="0.19" d=" M 90.00 404.99 C 90.18 404.65 90.54 403.98 90.72 403.64 C 92.51 406.21 94.74 408.42 97.31 410.22 C 96.99 410.41 96.35 410.79 96.04 410.98 C 93.74 409.30 91.70 407.26 90.00 404.99 Z" />
<path fill="#000000" opacity="0.19" d=" M 409.21 403.70 C 409.42 404.01 409.85 404.63 410.07 404.94 C 408.36 407.27 406.28 409.33 403.94 411.02 C 403.62 410.84 402.97 410.46 402.65 410.27 C 405.21 408.48 407.44 406.28 409.21 403.70 Z" />
</g>
<g id="#00000036">
<path fill="#000000" opacity="0.21" d=" M 231.81 55.41 C 232.10 53.45 230.72 50.32 233.13 49.30 C 233.19 50.26 233.30 52.18 233.36 53.14 C 234.64 51.89 235.99 50.71 237.41 49.60 C 236.63 52.26 234.76 55.01 231.81 55.41 Z" />
<path fill="#000000" opacity="0.21" d=" M 112.70 362.72 C 110.39 364.07 110.33 358.93 112.57 360.84 C 112.69 361.16 112.92 361.81 113.03 362.14 L 112.70 362.72 Z" />
</g>
<g id="#00000032">
<path fill="#000000" opacity="0.20" d=" M 272.04 51.10 L 273.06 51.02 C 273.37 54.62 274.27 59.45 270.76 61.80 C 267.98 63.88 266.10 67.25 262.65 68.31 C 264.64 64.31 269.08 62.43 271.56 58.81 C 271.82 56.25 271.53 53.64 272.04 51.10 Z" />
<path fill="#000000" opacity="0.20" d=" M 70.57 129.10 C 73.65 126.36 78.13 126.16 82.04 125.74 C 86.30 125.87 91.01 126.39 94.47 129.12 C 90.61 128.52 86.90 127.05 82.96 127.07 C 78.70 126.78 74.72 128.52 70.57 129.10 Z" />
<path fill="#000000" opacity="0.20" d=" M 404.56 129.11 C 407.94 126.30 412.77 125.97 417.00 125.74 C 420.93 126.21 425.35 126.46 428.54 129.08 C 424.64 128.73 420.98 127.00 417.02 127.07 C 412.75 126.83 408.72 128.48 404.56 129.11 Z" />
<path fill="#000000" opacity="0.20" d=" M 408.56 138.10 C 410.22 137.53 411.17 140.39 410.68 141.65 C 409.24 141.62 407.77 139.44 408.56 138.10 Z" />
<path fill="#000000" opacity="0.20" d=" M 107.93 142.51 C 110.69 145.99 111.08 150.78 111.27 155.06 C 110.73 158.92 110.68 163.42 107.90 166.44 C 108.55 162.64 109.98 158.96 109.87 155.06 C 110.12 150.76 108.54 146.70 107.93 142.51 Z" />
<path fill="#000000" opacity="0.20" d=" M 391.03 166.49 C 386.59 159.46 386.51 149.41 391.09 142.47 C 390.44 146.65 388.86 150.69 389.05 154.97 C 389.01 158.91 390.56 162.61 391.03 166.49 Z" />
<path fill="#000000" opacity="0.20" d=" M 441.91 142.48 C 444.76 145.91 444.98 150.76 445.24 155.03 C 444.92 158.95 444.64 163.40 441.89 166.48 C 442.48 162.28 444.24 158.25 443.89 153.94 C 443.94 150.01 442.44 146.32 441.91 142.48 Z" />
<path fill="#000000" opacity="0.20" d=" M 427.69 160.56 C 429.15 159.92 430.35 161.26 431.51 161.94 C 430.60 161.92 428.78 161.88 427.88 161.86 C 425.33 163.60 422.64 165.22 420.43 167.41 C 419.55 169.13 420.62 171.07 420.87 172.84 C 420.38 172.91 419.39 173.05 418.89 173.12 C 418.82 171.06 418.52 168.97 419.01 166.94 C 421.63 164.49 424.60 162.38 427.69 160.56 Z" />
<path fill="#000000" opacity="0.20" d=" M 70.52 179.88 C 74.36 180.52 78.07 182.01 82.02 181.94 C 86.26 182.16 90.27 180.58 94.39 179.91 C 91.03 182.82 86.19 182.93 81.97 183.26 C 78.05 182.85 73.66 182.53 70.52 179.88 Z" />
<path fill="#000000" opacity="0.20" d=" M 404.54 372.90 C 408.37 373.49 412.06 374.95 415.99 374.90 C 420.28 375.16 424.33 373.53 428.52 372.95 C 425.05 375.73 420.28 376.11 416.00 376.26 C 412.08 375.84 407.63 375.65 404.54 372.90 Z" />
</g>
<g id="#0000003d">
<path fill="#000000" opacity="0.24" d=" M 269.22 52.38 C 270.88 52.50 270.39 56.47 268.67 55.89 C 268.06 54.82 268.36 53.23 269.22 52.38 Z" />
</g>
<g id="#00000030">
<path fill="#000000" opacity="0.19" d=" M 215.98 78.92 C 218.58 77.49 221.02 75.62 223.95 74.89 C 226.78 77.79 229.04 81.35 232.77 83.30 C 228.98 91.15 224.12 98.43 220.13 106.17 C 217.88 110.77 214.62 114.88 213.08 119.79 C 214.37 119.27 215.64 118.58 216.33 117.30 C 223.04 106.85 228.87 95.88 235.16 85.18 C 239.82 87.28 244.77 88.51 249.82 89.24 C 249.83 97.08 249.73 104.95 250.44 112.77 C 250.74 112.78 251.34 112.81 251.63 112.82 C 252.26 104.98 252.33 97.12 252.27 89.26 C 255.65 88.42 259.06 87.64 262.52 87.12 C 266.80 94.86 271.30 102.49 276.00 109.99 C 277.64 112.27 278.78 115.42 281.81 116.12 C 277.09 105.34 269.98 95.80 264.80 85.27 C 269.71 82.93 273.74 79.25 276.82 74.80 C 311.56 94.82 346.29 114.85 381.02 134.91 C 382.56 135.76 384.01 136.80 385.27 138.05 L 383.84 138.04 C 360.11 124.07 336.16 110.48 312.34 96.66 C 300.52 90.14 289.14 82.81 277.13 76.62 C 274.33 80.53 270.49 83.44 266.47 85.99 C 275.83 103.02 286.48 119.32 295.90 136.33 C 294.05 136.43 292.21 136.54 290.37 136.66 C 285.44 129.15 281.02 121.32 276.57 113.53 C 271.51 105.18 266.57 96.75 261.73 88.26 C 259.13 88.87 256.53 89.50 253.94 90.14 C 253.41 110.79 254.04 131.47 253.65 152.12 C 252.61 149.54 252.97 146.73 253.00 144.02 C 253.19 139.40 253.06 134.77 252.79 130.15 C 252.01 129.97 250.45 129.60 249.67 129.42 C 248.14 136.77 249.48 144.29 248.85 151.71 L 248.13 151.94 C 248.26 131.36 248.52 110.77 248.12 90.20 C 243.92 89.47 239.82 88.30 235.88 86.68 C 228.27 98.96 221.45 111.73 214.31 124.29 C 212.10 128.05 210.34 132.09 207.59 135.50 C 205.41 136.38 203.16 137.10 200.88 137.66 C 205.80 127.87 211.72 118.62 217.05 109.06 C 221.68 100.65 226.62 92.42 231.20 83.98 C 228.29 81.73 225.71 79.07 223.67 76.00 C 191.28 94.41 159.11 113.20 126.80 131.77 C 125.22 132.63 123.61 133.44 122.02 134.27 C 123.81 131.19 127.44 130.13 130.30 128.33 C 158.93 111.97 187.40 95.36 215.98 78.92 Z" />
<path fill="#000000" opacity="0.19" d=" M 89.96 97.02 C 91.65 94.61 93.93 92.73 96.08 90.75 C 96.34 91.04 96.87 91.61 97.13 91.90 C 94.57 93.61 92.47 95.87 90.70 98.38 C 90.51 98.04 90.14 97.36 89.96 97.02 Z" />
<path fill="#000000" opacity="0.19" d=" M 402.87 90.72 C 405.51 91.67 407.40 93.84 409.17 95.92 C 410.00 96.66 410.05 97.47 409.30 98.37 C 407.62 95.96 405.59 93.82 403.23 92.08 L 402.87 90.72 Z" />
<path fill="#000000" opacity="0.19" d=" M 401.56 145.45 C 402.56 143.58 403.37 140.34 405.86 140.16 C 407.83 142.33 410.26 145.40 408.47 148.39 C 407.83 146.08 407.06 143.79 405.75 141.77 C 404.43 143.08 403.02 144.31 401.56 145.45 Z" />
<path fill="#000000" opacity="0.19" d=" M 426.73 148.42 C 424.60 145.89 426.63 142.45 428.95 140.84 C 431.08 141.06 431.70 143.77 432.37 145.45 C 431.35 144.65 430.41 143.78 429.55 142.83 C 427.06 143.58 427.20 146.35 426.73 148.42 Z" />
<path fill="#000000" opacity="0.19" d=" M 196.71 357.09 C 198.47 357.89 201.57 361.47 202.58 358.05 C 212.94 375.00 222.09 392.68 232.13 409.84 C 233.18 411.60 234.17 413.42 234.81 415.38 L 235.11 416.29 C 233.06 414.43 231.90 411.88 230.55 409.52 C 225.65 401.07 221.04 392.45 215.67 384.29 C 214.98 383.33 213.98 382.69 213.08 381.97 C 215.82 390.75 221.55 398.21 225.61 406.40 C 227.55 410.65 230.94 414.27 232.01 418.90 C 229.52 421.14 226.95 423.31 225.04 426.11 C 223.93 428.14 221.82 426.19 220.36 425.62 C 186.38 405.98 152.36 386.38 118.37 366.74 C 117.01 366.03 115.79 365.09 114.79 363.93 L 116.16 363.98 C 129.08 371.77 142.36 378.96 155.31 386.73 C 178.18 399.67 200.74 413.15 223.67 425.97 C 225.56 423.06 227.97 420.53 230.81 418.53 C 220.15 397.68 207.23 378.02 196.71 357.09 Z" />
</g>
<g id="#00000048">
<path fill="#000000" opacity="0.28" d=" M 248.85 151.71 C 249.48 144.29 248.14 136.77 249.67 129.42 C 250.45 129.60 252.01 129.97 252.79 130.15 C 253.06 134.77 253.19 139.40 253.00 144.02 C 252.97 146.73 252.61 149.54 253.65 152.12 C 268.82 152.16 284.01 152.35 299.18 151.94 C 296.58 146.66 293.34 141.73 290.37 136.66 C 292.21 136.54 294.05 136.43 295.90 136.33 C 298.84 141.64 301.98 146.86 305.14 152.05 C 331.41 151.71 357.69 152.51 383.97 151.99 C 384.06 151.14 384.24 149.43 384.33 148.57 C 385.07 149.85 384.88 151.32 384.85 152.73 C 368.57 152.72 352.27 152.71 336.00 153.46 C 337.47 154.59 339.16 155.48 341.06 155.54 C 355.66 156.21 370.28 155.97 384.88 156.20 C 384.93 157.63 385.12 159.12 384.35 160.42 C 384.26 159.53 384.10 157.75 384.02 156.86 C 360.37 156.47 336.71 156.95 313.06 156.73 C 311.08 156.66 309.17 157.17 307.31 157.76 C 307.15 157.54 306.82 157.12 306.66 156.91 C 307.43 156.23 308.20 155.56 308.97 154.88 C 305.96 153.51 303.07 151.88 300.41 149.91 C 300.68 150.98 300.95 152.05 301.22 153.13 C 284.92 152.98 268.63 152.47 252.33 152.73 C 252.24 148.89 252.29 144.98 251.07 141.30 C 249.63 144.93 249.79 148.88 249.64 152.71 C 236.10 152.65 222.55 152.67 209.02 153.06 C 205.11 153.28 201.18 153.46 197.30 152.83 C 193.14 151.81 191.76 157.02 189.39 159.35 C 189.30 158.76 189.13 157.56 189.04 156.97 C 164.37 156.60 139.68 156.67 115.00 156.85 C 114.93 157.74 114.77 159.54 114.70 160.43 C 114.19 159.07 114.15 157.61 114.12 156.19 C 126.74 155.97 139.36 156.19 151.97 155.82 C 156.04 155.61 160.76 156.36 164.06 153.40 C 147.48 152.68 130.89 152.87 114.31 152.67 C 113.68 148.16 111.45 143.96 111.22 139.42 C 111.74 139.34 112.79 139.17 113.31 139.09 C 112.97 139.38 112.28 139.96 111.93 140.25 C 113.01 144.17 114.27 148.04 115.16 152.02 C 141.05 152.39 166.93 152.00 192.81 151.84 C 195.52 147.12 198.32 142.46 200.88 137.66 C 203.16 137.10 205.41 136.38 207.59 135.50 C 204.60 140.96 201.18 146.22 198.76 151.98 C 215.21 152.14 231.69 152.45 248.13 151.94 L 248.85 151.71 Z" />
</g>
<g id="#0000002f">
<path fill="#000000" opacity="0.18" d=" M 115.56 138.16 C 114.80 135.98 118.33 134.16 119.95 135.59 C 118.64 136.69 117.22 137.68 115.56 138.16 Z" />
<path fill="#000000" opacity="0.18" d=" M 239.44 456.12 C 240.76 455.57 243.40 456.34 243.57 457.90 C 242.23 458.61 239.55 457.72 239.44 456.12 Z" />
</g>
<g id="#00000040">
<path fill="#000000" opacity="0.25" d=" M 61.51 141.83 C 62.43 145.46 61.95 149.24 62.02 152.94 C 61.92 157.68 62.29 162.43 61.77 167.15 C 60.69 164.56 61.11 161.73 61.09 159.01 C 61.26 153.28 60.52 147.51 61.51 141.83 Z" />
<path fill="#000000" opacity="0.25" d=" M 401.13 359.83 C 401.57 359.25 402.01 358.68 402.46 358.11 C 406.05 359.87 410.18 358.78 414.02 359.04 C 419.65 358.69 425.46 359.91 430.94 358.18 C 431.17 358.60 431.63 359.44 431.85 359.86 C 421.62 360.10 411.36 360.20 401.13 359.83 Z" />
<path fill="#000000" opacity="0.25" d=" M 248.11 430.66 C 249.69 432.39 249.04 434.89 249.20 437.03 C 249.00 444.98 249.48 452.94 248.93 460.88 C 247.93 460.39 246.94 459.90 245.94 459.43 C 247.33 459.16 247.99 458.36 247.89 457.03 C 248.12 451.35 247.86 445.67 247.99 440.00 C 248.21 436.86 246.59 433.65 248.11 430.66 Z" />
</g>
<g id="#0000007c">
<path fill="#000000" opacity="0.49" d=" M 249.64 152.71 C 249.79 148.88 249.63 144.93 251.07 141.30 C 252.29 144.98 252.24 148.89 252.33 152.73 C 268.63 152.47 284.92 152.98 301.22 153.13 C 300.95 152.05 300.68 150.98 300.41 149.91 C 303.07 151.88 305.96 153.51 308.97 154.88 C 308.20 155.56 307.43 156.23 306.66 156.91 C 306.82 157.12 307.15 157.54 307.31 157.76 C 311.55 163.01 314.58 169.07 318.09 174.80 C 321.01 179.75 324.07 184.61 326.80 189.68 C 325.68 190.41 324.56 191.15 323.45 191.88 C 316.29 180.21 309.66 168.20 302.49 156.55 C 286.05 156.18 269.57 156.61 253.12 156.35 C 252.99 167.48 253.30 178.60 252.90 189.72 L 252.29 189.65 C 252.04 178.35 251.61 167.05 251.22 155.76 C 250.24 158.39 250.49 161.23 250.46 163.98 C 250.52 172.54 249.57 181.08 249.74 189.65 L 249.08 189.69 C 248.76 178.57 249.33 167.45 248.85 156.34 C 231.04 156.62 213.20 156.19 195.40 156.54 C 187.05 170.38 179.61 184.79 171.26 198.65 C 170.46 197.51 169.20 196.90 168.02 196.26 C 175.07 183.92 181.80 171.37 189.39 159.35 C 191.76 157.02 193.14 151.81 197.30 152.83 C 201.18 153.46 205.11 153.28 209.02 153.06 C 222.55 152.67 236.10 152.65 249.64 152.71 Z" />
</g>
<g id="#00000042">
<path fill="#000000" opacity="0.26" d=" M 411.49 143.23 C 415.50 143.00 419.53 143.00 423.55 143.13 C 419.86 144.61 415.22 144.49 411.49 143.23 Z" />
</g>
<g id="#00000039">
<path fill="#000000" opacity="0.22" d=" M 435.68 143.55 C 437.03 144.74 438.78 145.94 438.88 147.93 C 439.14 152.30 439.11 156.69 438.87 161.06 C 438.94 162.32 437.88 163.15 437.20 164.06 C 438.08 159.42 437.83 154.68 437.89 149.99 C 438.13 147.60 436.58 145.62 435.68 143.55 Z" />
</g>
<g id="#0000003a">
<path fill="#000000" opacity="0.23" d=" M 395.16 147.93 C 395.06 146.64 396.11 145.82 396.88 144.96 C 395.74 151.23 395.65 157.79 396.93 164.04 C 396.17 163.19 395.02 162.43 395.11 161.13 C 394.83 156.74 394.89 152.32 395.16 147.93 Z" />
</g>
<g id="#0000003e">
<path fill="#000000" opacity="0.24" d=" M 399.02 159.16 C 399.11 155.25 398.06 150.99 399.91 147.35 C 400.19 150.74 399.35 154.27 400.29 157.56 C 400.74 157.84 401.65 158.41 402.10 158.69 C 401.06 158.76 400.03 158.92 399.02 159.16 Z" />
<path fill="#000000" opacity="0.24" d=" M 434.06 147.39 C 436.02 151.20 434.81 155.71 434.84 159.81 C 433.85 159.37 432.87 158.93 431.89 158.50 C 432.36 158.29 433.31 157.87 433.78 157.65 C 434.39 154.27 433.86 150.81 434.06 147.39 Z" />
<path fill="#000000" opacity="0.24" d=" M 252.24 430.96 C 255.01 433.40 252.76 436.92 253.05 440.00 C 253.13 445.99 253.01 451.99 253.06 457.99 C 253.85 458.03 255.45 458.10 256.25 458.14 C 254.84 458.75 253.43 459.37 252.02 460.01 C 251.79 450.34 251.42 440.60 252.24 430.96 Z" />
</g>
<g id="#0000003f">
<path fill="#000000" opacity="0.25" d=" M 65.26 148.78 C 65.81 149.72 66.88 150.61 66.55 151.83 C 65.70 156.30 65.63 160.88 66.51 165.36 C 65.48 164.92 64.98 164.15 65.01 163.05 C 64.78 158.29 64.81 153.52 65.26 148.78 Z" />
<path fill="#000000" opacity="0.25" d=" M 415.33 166.47 C 416.64 168.47 415.92 170.97 416.04 173.21 C 415.05 173.01 414.05 172.83 413.07 172.65 C 415.77 171.79 414.76 168.59 415.33 166.47 Z" />
</g>
<g id="#0000002e">
<path fill="#000000" opacity="0.18" d=" M 400.15 162.21 C 402.16 161.40 404.24 160.67 406.45 160.81 C 405.21 161.62 403.93 162.36 402.63 163.06 C 403.58 164.82 404.51 166.60 405.31 168.44 C 402.83 167.10 401.61 164.47 400.15 162.21 Z" />
<path fill="#000000" opacity="0.18" d=" M 410.30 163.24 C 411.68 162.61 414.02 164.24 413.69 165.77 C 412.30 166.24 410.11 164.73 410.30 163.24 Z" />
</g>
<g id="#00000035">
<path fill="#000000" opacity="0.21" d=" M 112.34 163.95 C 112.58 164.30 113.05 165.00 113.29 165.35 C 112.92 166.21 112.53 167.08 112.14 167.94 C 122.02 174.26 132.48 179.61 142.63 185.49 C 147.18 188.21 152.02 190.50 156.17 193.85 C 154.52 193.61 152.87 193.44 151.22 193.27 C 151.47 194.22 151.72 195.18 151.97 196.13 C 149.16 195.09 146.42 193.84 143.89 192.23 C 132.54 185.66 121.18 179.10 109.79 172.60 C 107.61 175.54 105.18 178.32 102.22 180.50 C 110.50 195.57 119.21 210.42 127.64 225.41 C 130.83 231.32 134.74 236.89 137.05 243.23 C 136.13 242.47 135.21 241.73 134.27 241.01 C 134.15 244.01 135.47 246.71 136.59 249.41 C 137.75 251.45 136.11 253.49 135.44 255.40 C 134.37 257.36 134.20 259.60 134.16 261.79 C 135.11 260.72 136.05 259.65 136.97 258.56 C 135.94 261.76 134.53 264.82 132.75 267.67 C 122.57 285.50 112.22 303.25 102.26 321.19 C 104.84 323.88 107.61 326.40 109.83 329.42 C 124.08 321.39 138.26 313.25 152.61 305.41 C 154.40 304.45 156.31 303.71 158.19 302.93 C 156.46 304.44 154.81 306.03 153.12 307.59 C 154.47 307.80 155.81 308.02 157.16 308.25 C 144.94 316.25 131.69 322.53 119.17 330.06 L 117.84 330.16 C 120.81 326.81 125.42 325.56 128.97 322.91 C 130.24 321.79 133.11 321.13 132.82 319.12 C 129.23 319.17 126.40 321.74 123.28 323.18 C 118.49 325.45 114.22 328.76 109.27 330.67 C 106.67 327.52 104.26 324.16 100.83 321.83 C 106.42 309.98 114.63 299.34 118.97 286.91 C 117.53 287.36 116.58 288.53 115.87 289.81 C 110.07 299.16 104.73 308.79 99.30 318.36 C 98.79 319.31 97.99 319.90 96.91 320.15 C 97.18 319.65 97.71 318.66 97.97 318.16 C 111.00 295.92 123.31 273.27 136.24 250.98 C 123.28 228.72 111.10 206.02 98.02 183.83 C 97.73 183.32 97.14 182.31 96.84 181.80 C 97.95 182.09 98.80 182.71 99.40 183.66 C 105.42 194.01 111.12 204.55 117.39 214.75 C 117.76 214.56 118.50 214.17 118.88 213.98 C 113.81 202.79 107.46 192.27 101.44 181.60 C 100.34 180.04 102.23 179.00 103.22 178.14 C 105.71 176.30 107.32 173.63 109.11 171.16 C 116.88 174.65 123.69 180.19 131.79 182.88 C 132.54 181.53 130.75 180.74 129.97 180.01 C 123.82 175.94 117.24 172.59 110.98 168.71 C 111.39 167.11 111.83 165.52 112.34 163.95 Z" />
<path fill="#000000" opacity="0.21" d=" M 387.30 170.11 C 387.76 169.82 388.68 169.24 389.14 168.95 C 389.37 171.48 386.64 171.96 384.93 172.94 C 380.41 174.93 376.34 177.75 372.00 180.09 C 370.94 180.80 369.34 181.40 369.26 182.89 C 370.31 182.96 371.32 182.77 372.29 182.33 C 378.68 179.57 384.65 175.91 391.06 173.21 C 393.56 176.33 396.50 179.01 399.80 181.27 C 394.03 191.63 388.07 201.91 382.47 212.35 C 382.15 213.16 381.49 216.77 383.12 215.17 C 388.76 206.93 393.40 198.02 398.45 189.40 C 399.86 187.24 400.70 184.34 403.00 183.01 C 407.12 184.68 411.46 185.58 415.84 186.24 C 415.93 229.41 415.97 272.58 415.81 315.74 C 411.46 316.35 407.19 317.34 403.11 318.94 C 401.69 317.99 401.02 316.32 400.12 314.95 C 394.92 305.83 389.29 296.98 383.85 288.02 C 383.32 287.30 382.76 286.62 382.17 285.97 C 381.47 289.25 383.69 292.01 385.15 294.72 C 389.95 303.50 395.26 311.98 400.15 320.71 C 395.83 323.26 392.24 326.81 389.73 331.16 C 382.60 327.96 376.30 323.04 368.98 320.23 C 368.68 320.41 368.08 320.75 367.78 320.92 C 371.82 325.12 377.58 326.96 382.14 330.49 C 381.82 330.64 381.17 330.95 380.85 331.10 C 368.43 323.00 354.88 316.67 342.77 308.09 C 344.24 308.33 345.73 308.52 347.22 308.69 C 345.74 306.48 343.94 304.51 341.91 302.81 C 357.53 310.55 372.04 320.34 387.30 328.72 C 389.51 330.39 390.71 327.32 391.98 326.01 C 393.62 323.64 396.33 322.34 398.11 320.12 C 396.34 315.46 393.36 311.39 390.90 307.09 C 385.13 297.23 379.21 287.45 373.39 277.62 C 370.80 272.48 367.06 267.94 365.11 262.47 C 365.51 262.15 366.30 261.51 366.70 261.19 C 366.57 257.86 364.14 255.13 363.07 252.04 C 363.25 251.76 363.63 251.20 363.82 250.92 C 366.69 256.94 370.62 262.35 373.89 268.15 C 383.63 284.68 393.22 301.30 403.15 317.72 C 406.98 316.26 410.96 315.27 415.04 314.86 C 415.28 289.25 415.06 263.64 415.13 238.03 C 415.06 221.07 415.32 204.11 415.02 187.15 C 410.89 186.65 406.84 185.69 402.96 184.23 C 390.60 204.64 379.51 225.82 367.15 246.25 C 366.47 247.26 365.74 248.23 365.03 249.22 C 366.07 246.27 366.62 243.19 367.14 240.13 C 366.05 241.18 364.96 242.24 363.92 243.34 C 364.83 240.85 365.75 238.35 367.11 236.07 C 377.57 218.01 387.84 199.85 398.35 181.83 C 395.57 179.48 392.83 177.08 390.12 174.66 C 383.86 177.77 377.76 181.18 371.65 184.56 C 362.68 188.99 354.22 194.46 344.91 198.15 C 345.66 196.80 346.38 195.42 347.12 194.06 C 344.32 195.14 341.47 196.02 338.63 196.96 C 343.81 193.04 349.86 190.59 355.50 187.43 C 365.91 181.31 376.97 176.38 387.30 170.11 Z" />
</g>
<g id="#00000080">
<path fill="#000000" opacity="0.50" d=" M 72.05 168.25 C 73.61 168.71 75.34 170.02 76.73 168.43 C 77.29 169.62 78.04 170.76 78.67 171.94 C 76.39 170.85 74.18 169.62 72.05 168.25 Z" />
<path fill="#000000" opacity="0.50" d=" M 247.08 312.27 L 247.71 312.38 C 247.75 318.94 248.11 325.48 248.34 332.03 C 248.27 333.24 248.66 334.37 249.43 335.30 C 249.79 327.67 250.14 320.03 250.30 312.39 L 251.04 312.33 C 251.02 323.44 251.16 334.54 251.25 345.65 C 265.48 345.53 279.70 345.55 293.93 345.67 C 294.47 346.32 295.01 346.98 295.56 347.64 C 295.19 347.92 294.47 348.49 294.11 348.78 C 297.04 348.91 299.97 349.08 302.90 349.31 C 302.79 349.65 302.56 350.32 302.44 350.66 C 300.72 349.83 298.85 349.44 296.95 349.54 C 281.89 349.67 266.84 349.53 251.79 349.64 L 251.08 350.08 L 250.35 350.55 C 249.66 353.45 250.67 357.02 248.51 359.38 C 248.09 356.00 247.95 352.60 247.77 349.20 C 236.84 349.25 225.92 349.22 215.00 348.92 C 210.69 348.77 206.29 349.12 202.13 347.81 C 202.63 347.26 203.62 346.17 204.12 345.62 C 218.34 345.56 232.57 345.55 246.79 345.65 C 246.88 334.52 247.22 323.40 247.08 312.27 Z" />
</g>
<g id="#00000088">
<path fill="#000000" opacity="0.53" d=" M 323.45 191.88 C 324.56 191.15 325.68 190.41 326.80 189.68 C 328.71 193.15 330.85 196.50 333.00 199.84 C 334.87 198.88 336.75 197.92 338.63 196.96 C 341.47 196.02 344.32 195.14 347.12 194.06 C 346.38 195.42 345.66 196.80 344.91 198.15 C 341.53 199.82 338.26 201.70 334.97 203.53 C 342.02 215.54 349.40 227.36 356.05 239.59 C 356.88 242.50 357.90 245.51 357.23 248.57 C 348.16 234.44 340.15 219.65 331.27 205.40 C 328.25 207.21 325.07 208.71 321.81 210.03 C 322.90 208.80 323.95 207.54 325.01 206.29 C 322.92 206.89 320.83 207.47 318.75 208.12 C 321.78 205.60 325.30 203.81 328.91 202.30 C 327.75 198.51 325.43 195.26 323.45 191.88 Z" />
<path fill="#000000" opacity="0.53" d=" M 242.75 440.10 C 240.96 445.19 236.85 449.03 234.46 453.83 C 235.11 454.09 236.39 454.60 237.03 454.85 C 235.79 454.54 234.56 454.24 233.32 453.97 C 236.70 449.51 239.57 444.70 242.75 440.10 Z" />
</g>
<g id="#00000084">
<path fill="#000000" opacity="0.52" d=" M 151.22 193.27 C 152.87 193.44 154.52 193.61 156.17 193.85 C 159.36 195.90 162.72 197.68 166.05 199.50 C 166.71 198.42 167.37 197.34 168.02 196.26 C 169.20 196.90 170.46 197.51 171.26 198.65 C 171.05 199.66 169.31 201.30 170.77 202.10 C 173.12 203.73 175.71 205.00 178.02 206.71 C 177.59 207.09 176.75 207.84 176.32 208.22 C 176.48 208.69 176.79 209.62 176.94 210.09 C 173.78 208.70 170.77 207.03 167.81 205.27 C 162.35 213.82 157.79 222.90 152.49 231.54 C 149.83 235.86 147.30 240.26 145.00 244.78 C 143.40 240.95 146.23 237.42 147.13 233.81 C 151.05 227.39 154.17 220.54 157.96 214.06 C 159.98 210.27 162.39 206.67 163.88 202.62 C 159.63 200.96 156.10 197.98 151.97 196.13 C 151.72 195.18 151.47 194.22 151.22 193.27 Z" />
</g>
<g id="#00000082">
<path fill="#000000" opacity="0.51" d=" M 334.51 294.38 C 338.20 287.72 342.08 281.17 345.80 274.52 C 346.95 275.32 348.11 276.11 349.27 276.91 C 344.81 284.44 340.43 292.03 336.16 299.67 C 338.08 300.71 339.99 301.76 341.91 302.81 C 343.94 304.51 345.74 306.48 347.22 308.69 C 345.73 308.52 344.24 308.33 342.77 308.09 C 339.96 306.30 337.03 304.71 334.11 303.14 C 328.74 312.72 323.16 322.17 317.78 331.75 C 315.94 334.91 313.40 337.65 311.98 341.07 C 311.11 341.31 310.24 341.55 309.38 341.80 C 309.51 340.40 309.64 339.00 309.82 337.62 C 316.62 325.34 323.81 313.28 330.59 300.99 C 327.96 299.58 325.44 297.97 323.06 296.17 C 323.44 296.01 324.20 295.69 324.58 295.53 C 324.45 294.62 324.32 293.72 324.18 292.83 C 326.89 294.01 329.42 295.59 332.10 296.83 C 333.41 296.74 333.84 295.27 334.51 294.38 Z" />
</g>
<g id="#00000081">
<path fill="#000000" opacity="0.51" d=" M 157.92 283.07 C 158.46 283.21 159.55 283.51 160.09 283.66 C 162.56 288.19 165.10 292.69 167.76 297.12 C 170.03 296.05 172.33 295.02 174.65 294.03 C 175.69 294.72 176.74 295.41 177.79 296.11 C 175.28 297.89 172.67 299.52 170.02 301.07 C 176.83 313.71 184.26 326.01 191.05 338.66 C 191.57 340.51 192.02 342.38 192.46 344.26 C 190.51 342.52 188.58 340.73 187.06 338.60 C 179.39 327.24 173.41 314.86 166.26 303.18 C 163.12 304.67 159.99 306.21 157.16 308.25 C 155.81 308.02 154.47 307.80 153.12 307.59 C 154.81 306.03 156.46 304.44 158.19 302.93 C 160.19 301.75 162.16 300.51 164.11 299.24 C 161.53 294.89 159.25 290.37 156.71 286.00 C 157.12 285.02 157.52 284.04 157.92 283.07 Z" />
</g>
<g id="#0000004e">
<path fill="#000000" opacity="0.31" d=" M 187.06 338.60 C 188.58 340.73 190.51 342.52 192.46 344.26 C 192.02 342.38 191.57 340.51 191.05 338.66 C 192.59 340.92 194.14 343.17 195.52 345.54 C 198.38 345.58 201.25 345.61 204.12 345.62 C 203.62 346.17 202.63 347.26 202.13 347.81 C 206.29 349.12 210.69 348.77 215.00 348.92 C 225.92 349.22 236.84 349.25 247.77 349.20 C 247.95 352.60 248.09 356.00 248.51 359.38 C 250.67 357.02 249.66 353.45 250.35 350.55 L 251.08 350.08 C 250.87 356.80 251.16 363.53 250.73 370.24 C 249.37 369.77 247.08 370.03 247.23 367.97 C 246.56 362.07 247.30 356.12 246.89 350.20 L 246.10 350.07 C 236.10 349.44 226.06 349.98 216.04 349.85 C 210.07 349.85 204.09 349.72 198.13 350.15 C 199.46 352.86 200.94 355.50 202.58 358.05 C 201.57 361.47 198.47 357.89 196.71 357.09 C 195.41 354.82 194.22 352.45 192.53 350.44 C 185.76 349.29 178.81 350.22 171.97 349.89 C 153.00 349.74 134.03 349.83 115.06 349.97 C 114.96 350.82 114.76 352.54 114.66 353.39 C 114.34 352.04 114.20 350.65 114.09 349.27 C 131.75 349.27 149.43 349.34 167.08 348.55 C 165.37 347.10 163.21 346.36 160.99 346.32 C 145.36 345.85 129.72 345.92 114.09 345.77 C 114.13 344.35 114.20 342.93 114.66 341.58 C 114.74 342.47 114.89 344.24 114.97 345.12 C 139.74 345.33 164.53 345.46 189.29 345.13 C 188.52 342.96 187.82 340.76 187.06 338.60 Z" />
</g>
<g id="#00000034">
<path fill="#000000" opacity="0.20" d=" M 246.10 350.07 L 246.89 350.20 C 247.30 356.12 246.56 362.07 247.23 367.97 C 247.08 370.03 249.37 369.77 250.73 370.24 C 251.16 363.53 250.87 356.80 251.08 350.08 L 251.79 349.64 C 251.82 370.38 251.39 391.13 251.89 411.87 C 256.32 412.19 260.48 413.77 264.74 414.89 C 276.67 395.26 287.23 374.79 299.32 355.25 C 302.20 356.97 304.21 353.56 306.17 351.99 C 301.87 362.01 295.58 371.02 290.55 380.68 C 283.19 392.87 276.30 405.33 269.22 417.69 C 272.22 419.89 274.89 422.50 277.18 425.44 C 292.89 416.92 308.14 407.57 323.73 398.82 C 343.76 387.03 364.15 375.84 384.01 363.78 C 384.20 364.01 384.58 364.47 384.76 364.70 C 371.51 372.92 357.74 380.29 344.33 388.26 C 321.81 401.22 299.32 414.24 276.78 427.18 C 274.54 423.43 270.83 420.96 267.99 417.87 C 273.47 406.70 280.89 396.47 285.77 385.00 C 285.61 384.65 285.29 383.95 285.13 383.60 C 280.47 389.66 276.91 396.47 273.03 403.03 C 270.48 407.56 267.69 411.95 265.54 416.69 C 260.73 414.46 255.53 413.38 250.32 412.57 C 250.04 404.19 251.12 395.51 249.01 387.36 C 248.51 388.52 248.22 389.73 248.12 390.99 C 247.67 398.27 247.73 405.57 247.69 412.87 C 244.10 413.76 240.49 414.60 237.04 415.97 C 236.70 415.76 236.00 415.34 235.65 415.13 C 239.13 414.08 242.60 412.98 246.09 411.95 C 246.64 391.34 246.32 370.69 246.10 350.07 Z" />
</g>
<g id="#00000041">
<path fill="#000000" opacity="0.25" d=" M 395.74 363.72 C 397.06 363.04 398.53 362.83 400.01 362.91 C 409.33 363.07 418.65 362.96 427.97 362.99 C 431.05 363.10 434.29 362.39 437.24 363.61 C 430.53 364.31 423.77 363.73 417.03 363.92 C 409.94 363.78 402.83 364.16 395.74 363.72 Z" />
</g>
<g id="#0000002b">
<path fill="#000000" opacity="0.17" d=" M 104.28 363.65 C 104.46 363.99 104.80 364.67 104.97 365.01 C 102.95 367.87 100.40 370.70 97.06 372.00 C 96.73 371.80 96.06 371.41 95.72 371.22 C 99.24 369.57 102.29 367.01 104.28 363.65 Z" />
<path fill="#000000" opacity="0.17" d=" M 429.54 372.34 C 432.67 369.39 436.13 366.82 439.20 363.79 C 437.97 368.03 433.76 371.33 429.54 372.34 Z" />
</g>
</svg>
