<?xml version="1.0" encoding="UTF-8" ?>
<!DOCTYPE svg PUBLIC "-//W3C//DTD SVG 1.1//EN" "http://www.w3.org/Graphics/SVG/1.1/DTD/svg11.dtd">
<svg width="668pt" height="658pt" viewBox="0 0 668 658" version="1.1" xmlns="http://www.w3.org/2000/svg">
<g id="#d7ccc8ff">
<path fill="#d7ccc8" opacity="1.00" d=" M 0.00 0.00 L 668.00 0.00 L 668.00 658.00 L 0.00 658.00 L 0.00 0.00 M 175.99 111.77 C 162.48 133.67 150.58 157.29 146.67 182.98 C 146.50 188.90 146.20 194.88 146.91 200.77 C 148.35 207.09 150.31 213.51 154.19 218.79 C 159.93 226.37 168.06 231.64 176.32 236.10 C 185.01 240.78 194.37 243.98 203.59 247.43 C 199.72 256.57 196.74 266.05 194.28 275.65 C 191.51 288.61 188.72 301.68 188.32 314.98 C 186.83 324.23 187.50 333.64 187.34 342.97 C 187.47 345.59 187.01 348.35 187.87 350.87 C 190.00 353.28 192.79 354.96 195.35 356.88 C 209.04 366.76 222.61 376.83 236.34 386.67 C 237.79 387.73 239.03 389.11 239.56 390.86 C 243.77 404.04 247.38 417.43 251.93 430.50 C 265.13 424.20 278.07 417.34 291.19 410.87 C 292.61 410.16 294.38 410.11 295.60 411.26 C 302.14 416.24 308.59 421.35 315.14 426.33 C 321.33 422.86 326.26 417.62 332.03 413.57 C 332.54 413.52 333.55 413.41 334.05 413.35 C 340.33 417.20 345.40 422.79 351.90 426.35 C 358.44 421.06 364.87 415.62 371.43 410.35 C 374.91 407.50 379.21 410.61 382.62 411.99 C 393.78 416.73 404.67 422.17 416.05 426.38 C 418.42 415.79 421.71 405.43 424.30 394.89 C 425.10 392.10 425.61 388.84 428.15 387.05 C 444.65 375.28 461.21 363.58 477.60 351.65 C 477.75 339.16 477.94 326.62 476.02 314.24 C 475.74 306.80 473.74 299.63 472.82 292.27 C 469.26 277.05 465.63 261.59 458.52 247.56 C 459.74 246.63 460.96 245.61 462.44 245.08 C 475.90 240.37 489.29 234.44 500.11 224.95 C 509.99 216.44 514.23 202.77 513.48 190.02 C 513.91 182.88 511.92 175.97 510.37 169.08 C 506.84 155.75 501.31 143.03 494.91 130.84 C 489.31 120.57 483.64 110.25 476.34 101.08 C 482.62 120.34 488.72 140.53 485.98 161.00 C 484.95 171.31 479.13 180.92 470.52 186.68 C 456.33 196.27 438.41 196.28 421.97 195.32 C 419.39 194.45 417.43 192.40 415.24 190.87 C 399.07 178.75 379.71 171.26 359.86 167.90 C 354.15 166.08 348.12 166.85 342.28 165.89 C 336.89 165.19 331.45 165.63 326.03 165.50 C 319.98 165.24 314.03 166.67 307.98 166.60 C 285.30 169.65 262.70 177.28 244.60 191.65 C 242.35 193.31 240.15 195.67 237.11 195.51 C 225.07 195.70 212.63 196.40 201.08 192.27 C 189.44 188.75 179.12 179.94 175.48 168.11 C 172.89 158.68 172.75 148.66 174.22 139.03 C 175.33 125.98 179.68 113.51 183.65 101.11 C 180.97 104.57 178.19 107.97 175.99 111.77 M 419.16 452.72 C 417.82 452.40 416.48 452.11 415.22 451.58 C 400.87 444.95 386.13 439.20 371.82 432.47 C 364.22 438.29 357.09 444.73 349.66 450.77 C 348.45 451.99 346.62 451.77 345.46 450.64 C 340.49 447.01 335.87 442.89 330.77 439.47 C 330.39 439.47 329.63 439.46 329.25 439.45 C 323.84 442.97 318.99 447.31 313.71 451.03 C 312.51 452.05 310.76 451.56 309.66 450.66 C 303.08 446.00 296.84 440.86 290.15 436.36 C 274.09 443.79 258.18 451.63 241.88 458.50 C 236.17 441.80 230.21 425.18 224.18 408.60 C 223.77 408.57 222.95 408.53 222.54 408.50 C 219.24 412.00 215.70 415.28 212.73 419.08 C 214.73 424.50 215.15 430.31 216.70 435.86 C 219.93 453.01 224.23 469.97 227.07 487.18 C 227.73 488.75 229.57 488.44 230.95 488.56 C 240.67 488.58 250.38 488.53 260.10 488.53 C 261.61 488.31 263.09 488.93 263.66 490.43 C 267.91 498.62 271.40 507.21 275.71 515.38 C 277.02 518.21 280.42 518.55 283.05 519.47 C 298.87 524.28 314.67 529.20 330.43 534.21 C 332.12 534.73 333.95 534.82 335.63 534.18 C 350.49 528.64 365.38 523.16 380.30 517.76 C 382.22 516.93 384.63 516.30 385.44 514.13 C 389.35 505.04 392.60 495.66 396.88 486.74 C 405.05 486.20 413.28 486.86 421.41 485.69 C 425.09 485.11 429.18 486.32 432.61 484.86 C 435.98 479.31 435.28 472.39 437.16 466.31 C 440.26 449.10 443.92 432.00 446.82 414.75 C 442.97 411.04 438.78 407.71 434.70 404.27 C 428.89 420.20 424.69 436.69 419.16 452.72 Z" />
<path fill="#d7ccc8" opacity="1.00" d=" M 420.39 295.80 C 423.02 295.06 425.58 293.18 428.40 293.64 C 431.78 296.54 434.34 300.23 437.35 303.50 C 433.75 315.34 430.28 327.21 426.89 339.11 C 426.11 341.47 426.16 344.84 423.40 345.88 C 415.08 347.92 406.41 347.10 398.04 348.85 C 389.32 349.82 380.56 350.48 371.87 351.68 C 366.94 346.07 362.46 340.09 357.75 334.30 C 357.28 333.44 356.09 332.45 356.80 331.41 C 358.71 327.32 360.94 323.39 362.83 319.29 C 364.02 316.99 365.21 314.23 367.90 313.37 C 385.40 307.55 402.90 301.69 420.39 295.80 Z" />
<path fill="#d7ccc8" opacity="1.00" d=" M 228.28 303.87 C 230.96 299.98 234.05 296.24 237.85 293.39 C 257.73 299.83 277.52 306.72 297.39 313.24 C 300.80 314.29 302.05 317.89 303.48 320.78 C 304.98 324.27 307.12 327.46 308.51 331.00 C 309.34 334.10 306.14 336.18 304.60 338.47 C 300.61 342.68 297.87 348.23 293.09 351.59 C 282.74 350.03 272.25 349.72 261.92 347.98 C 255.52 347.42 249.09 347.13 242.75 346.09 C 241.01 345.76 240.32 344.08 239.80 342.63 C 235.90 329.73 232.56 316.65 228.28 303.87 Z" />
<path fill="#d7ccc8" opacity="1.00" d=" M 328.29 349.62 C 329.84 350.30 331.40 350.97 332.96 351.65 C 334.65 350.97 336.36 350.30 338.06 349.63 C 343.30 359.42 347.91 369.54 353.45 379.16 C 351.68 381.31 349.82 383.40 347.85 385.39 C 345.57 383.78 343.29 382.16 341.02 380.53 C 338.36 381.56 335.81 383.07 332.94 383.43 C 330.10 383.07 327.54 381.64 324.92 380.57 C 322.56 382.13 320.22 383.73 317.89 385.35 C 315.80 383.53 313.98 381.43 312.48 379.10 C 315.66 373.23 318.70 367.28 321.76 361.35 C 323.85 357.39 325.49 353.16 328.29 349.62 Z" />
</g>
<g id="#a69b97ff">
<path fill="#a69b97" opacity="1.00" d=" M 175.99 111.77 C 178.19 107.97 180.97 104.57 183.65 101.11 C 179.68 113.51 175.33 125.98 174.22 139.03 C 172.75 148.66 172.89 158.68 175.48 168.11 C 179.12 179.94 189.44 188.75 201.08 192.27 C 212.63 196.40 225.07 195.70 237.11 195.51 C 240.15 195.67 242.35 193.31 244.60 191.65 C 262.70 177.28 285.30 169.65 307.98 166.60 C 314.03 166.67 319.98 165.24 326.03 165.50 C 331.45 165.63 336.89 165.19 342.28 165.89 C 348.12 166.85 354.15 166.08 359.86 167.90 C 379.71 171.26 399.07 178.75 415.24 190.87 C 417.43 192.40 419.39 194.45 421.97 195.32 C 438.41 196.28 456.33 196.27 470.52 186.68 C 479.13 180.92 484.95 171.31 485.98 161.00 C 488.72 140.53 482.62 120.34 476.34 101.08 C 483.64 110.25 489.31 120.57 494.91 130.84 C 501.31 143.03 506.84 155.75 510.37 169.08 C 511.92 175.97 513.91 182.88 513.48 190.02 C 514.23 202.77 509.99 216.44 500.11 224.95 C 489.29 234.44 475.90 240.37 462.44 245.08 C 460.96 245.61 459.74 246.63 458.52 247.56 C 465.63 261.59 469.26 277.05 472.82 292.27 C 473.74 299.63 475.74 306.80 476.02 314.24 C 477.94 326.62 477.75 339.16 477.60 351.65 C 461.21 363.58 444.65 375.28 428.15 387.05 C 425.61 388.84 425.10 392.10 424.30 394.89 C 421.71 405.43 418.42 415.79 416.05 426.38 C 404.67 422.17 393.78 416.73 382.62 411.99 C 379.21 410.61 374.91 407.50 371.43 410.35 C 364.87 415.62 358.44 421.06 351.90 426.35 C 345.40 422.79 340.33 417.20 334.05 413.35 C 333.55 413.41 332.54 413.52 332.03 413.57 C 326.26 417.62 321.33 422.86 315.14 426.33 C 308.59 421.35 302.14 416.24 295.60 411.26 C 294.38 410.11 292.61 410.16 291.19 410.87 C 278.07 417.34 265.13 424.20 251.93 430.50 C 247.38 417.43 243.77 404.04 239.56 390.86 C 239.03 389.11 237.79 387.73 236.34 386.67 C 222.61 376.83 209.04 366.76 195.35 356.88 C 192.79 354.96 190.00 353.28 187.87 350.87 C 187.01 348.35 187.47 345.59 187.34 342.97 C 187.50 333.64 186.83 324.23 188.32 314.98 C 188.72 301.68 191.51 288.61 194.28 275.65 C 196.74 266.05 199.72 256.57 203.59 247.43 C 194.37 243.98 185.01 240.78 176.32 236.10 C 168.06 231.64 159.93 226.37 154.19 218.79 C 150.31 213.51 148.35 207.09 146.91 200.77 C 146.20 194.88 146.50 188.90 146.67 182.98 C 150.58 157.29 162.48 133.67 175.99 111.77 M 420.39 295.80 C 402.90 301.69 385.40 307.55 367.90 313.37 C 365.21 314.23 364.02 316.99 362.83 319.29 C 360.94 323.39 358.71 327.32 356.80 331.41 C 356.09 332.45 357.28 333.44 357.75 334.30 C 362.46 340.09 366.94 346.07 371.87 351.68 C 380.56 350.48 389.32 349.82 398.04 348.85 C 406.41 347.10 415.08 347.92 423.40 345.88 C 426.16 344.84 426.11 341.47 426.89 339.11 C 430.28 327.21 433.75 315.34 437.35 303.50 C 434.34 300.23 431.78 296.54 428.40 293.64 C 425.58 293.18 423.02 295.06 420.39 295.80 M 228.28 303.87 C 232.56 316.65 235.90 329.73 239.80 342.63 C 240.32 344.08 241.01 345.76 242.75 346.09 C 249.09 347.13 255.52 347.42 261.92 347.98 C 272.25 349.72 282.74 350.03 293.09 351.59 C 297.87 348.23 300.61 342.68 304.60 338.47 C 306.14 336.18 309.34 334.10 308.51 331.00 C 307.12 327.46 304.98 324.27 303.48 320.78 C 302.05 317.89 300.80 314.29 297.39 313.24 C 277.52 306.72 257.73 299.83 237.85 293.39 C 234.05 296.24 230.96 299.98 228.28 303.87 M 328.29 349.62 C 325.49 353.16 323.85 357.39 321.76 361.35 C 318.70 367.28 315.66 373.23 312.48 379.10 C 313.98 381.43 315.80 383.53 317.89 385.35 C 320.22 383.73 322.56 382.13 324.92 380.57 C 327.54 381.64 330.10 383.07 332.94 383.43 C 335.81 383.07 338.36 381.56 341.02 380.53 C 343.29 382.16 345.57 383.78 347.85 385.39 C 349.82 383.40 351.68 381.31 353.45 379.16 C 347.91 369.54 343.30 359.42 338.06 349.63 C 336.36 350.30 334.65 350.97 332.96 351.65 C 331.40 350.97 329.84 350.30 328.29 349.62 Z" />
<path fill="#a69b97" opacity="1.00" d=" M 419.16 452.72 C 424.69 436.69 428.89 420.20 434.70 404.27 C 438.78 407.71 442.97 411.04 446.82 414.75 C 443.92 432.00 440.26 449.10 437.16 466.31 C 435.28 472.39 435.98 479.31 432.61 484.86 C 429.18 486.32 425.09 485.11 421.41 485.69 C 413.28 486.86 405.05 486.20 396.88 486.74 C 392.60 495.66 389.35 505.04 385.44 514.13 C 384.63 516.30 382.22 516.93 380.30 517.76 C 365.38 523.16 350.49 528.64 335.63 534.18 C 333.95 534.82 332.12 534.73 330.43 534.21 C 314.67 529.20 298.87 524.28 283.05 519.47 C 280.42 518.55 277.02 518.21 275.71 515.38 C 271.40 507.21 267.91 498.62 263.66 490.43 C 263.09 488.93 261.61 488.31 260.10 488.53 C 250.38 488.53 240.67 488.58 230.95 488.56 C 229.57 488.44 227.73 488.75 227.07 487.18 C 224.23 469.97 219.93 453.01 216.70 435.86 C 215.15 430.31 214.73 424.50 212.73 419.08 C 215.70 415.28 219.24 412.00 222.54 408.50 C 222.95 408.53 223.77 408.57 224.18 408.60 C 230.21 425.18 236.17 441.80 241.88 458.50 C 258.18 451.63 274.09 443.79 290.15 436.36 C 296.84 440.86 303.08 446.00 309.66 450.66 C 310.76 451.56 312.51 452.05 313.71 451.03 C 318.99 447.31 323.84 442.97 329.25 439.45 C 329.63 439.46 330.39 439.47 330.77 439.47 C 335.87 442.89 340.49 447.01 345.46 450.64 C 346.62 451.77 348.45 451.99 349.66 450.77 C 357.09 444.73 364.22 438.29 371.82 432.47 C 386.13 439.20 400.87 444.95 415.22 451.58 C 416.48 452.11 417.82 452.40 419.16 452.72 Z" />
</g>
</svg>
