<?xml version="1.0" encoding="utf-8"?>
<!-- Svg Vector Icons : http://www.onlinewebfonts.com/icon -->
<!DOCTYPE svg PUBLIC "-//W3C//DTD SVG 1.1//EN" "http://www.w3.org/Graphics/SVG/1.1/DTD/svg11.dtd">
<svg version="1.1" xmlns="http://www.w3.org/2000/svg" xmlns:xlink="http://www.w3.org/1999/xlink" x="0px" y="0px" viewBox="0 0 1000 1000" enable-background="new 0 0 1000 1000" xml:space="preserve">
<metadata> Svg Vector Icons : http://www.onlinewebfonts.com/icon </metadata>
<g><g transform="translate(0.000000,511.000000) scale(0.100000,-0.100000)"><path d="M4635.6,4989.3c-1249-145.1-2305.8-1009.8-2698-2207.8c-129.4-396.1-145.1-533.3-154.9-1305.9l-7.9-702l-98-131.3C1316,167.8,1245.4-494.9,1502.3-1002.8c237.2-474.5,760.8-925.5,1439.2-1243.1l186.3-86.3l7.8-264.7c7.9-288.2,33.3-368.6,143.1-470.6c49-45.1,68.6-49,284.3-54.9c266.7-7.9,333.3,13.7,456.9,151c80.4,88.2,111.8,182.3,111.8,331.4v102h164.7h164.7l7.9-300c9.8-323.5,31.4-405.9,129.4-509.8c90.2-96.1,141.2-111.8,364.7-113.7c243.1-2,341.2,33.3,451,162.7c103.9,121.6,129.4,219.6,129.4,509.8v251h164.7h162.7l9.8-154.9c11.8-186.3,70.6-323.5,172.5-390.2c64.7-43.1,84.3-45.1,305.9-39.2c219.6,5.9,243.1,9.8,317.6,58.8c43.1,29.4,105.9,96.1,135.3,147.1c51,88.2,54.9,111.8,60.8,343.1l7.9,249l245.1,129.4c815.7,425.5,1321.5,925.5,1488.2,1472.5c52.9,172.5,49,588.2-9.8,802c-54.9,207.8-149,402-272.5,562.7l-98,131.3l-9.8,721.6c-7.9,651-11.8,741.2-51,917.6c-96.1,435.3-294.1,894.1-537.2,1239.2c-160.8,227.4-545.1,611.7-778.4,776.5C6227.7,4871.7,5406.2,5079.5,4635.6,4989.3z M3410.1,773.7c474.5-98,839.2-547,839.2-1033.3c-2-466.7-337.3-894.1-798-1013.7c-229.4-60.8-521.6-27.5-751,82.4c-143.1,68.6-388.2,313.7-458.8,458.8c-149,307.8-147.1,643.1,3.9,954.9c70.6,147.1,292.2,368.6,447.1,451C2906.2,785.5,3174.8,822.7,3410.1,773.7z M7012,765.8c182.3-43.1,347-137.2,494.1-284.3c327.5-323.5,403.9-796.1,198-1215.7c-70.6-145.1-313.7-386.3-458.8-456.9c-313.7-151-658.8-151-972.5,0c-149,72.5-388.2,311.7-460.8,460.8c-203.9,425.5-127.4,888.2,200,1211.7C6282.6,750.2,6643.4,852.1,7012,765.8z M4714-1049.8c29.4-9.8,90.2-54.9,135.3-98l78.4-76.5l58.8,60.8c123.5,129.4,272.5,166.7,400,98c103.9-52.9,156.9-145.1,156.9-266.7c0-125.5-41.2-188.2-280.4-415.7c-286.3-274.5-378.4-270.6-686.3,31.4c-221.6,215.7-249,258.8-249,386.3c0,119.6,60.8,217.6,164.7,264.7C4584.6-1024.3,4635.6-1020.4,4714-1049.8z"/><path d="M3396.4-3402.7c-70.6-21.6-107.8-51-152.9-115.7c-29.4-41.2-33.3-102-33.3-433.3c0-366.7,2-388.3,45.1-451c86.3-129.4,151-154.9,386.3-154.9c184.3,0,217.7,5.9,274.5,45.1c135.3,90.2,147.1,135.3,147.1,556.9c0,425.5-7.8,449-158.8,525.5C3818-3385.1,3500.3-3367.4,3396.4-3402.7z"/><path d="M6163-3408.6c-103.9-39.2-184.3-121.6-209.8-215.7c-33.3-123.5-13.7-652.9,25.5-727.4c80.4-149,196.1-205.9,417.6-205.9c194.1,0,272.6,27.5,349,115.7c80.4,96.1,96.1,190.2,88.2,543.1c-5.9,354.9-17.6,388.2-154.9,468.6C6592.4-3379.2,6276.8-3367.4,6163-3408.6z"/><path d="M4690.5-3732.1c-158.8-70.6-225.5-213.7-225.5-480.4c0-182.3,33.3-325.5,94.1-413.7c80.4-113.7,154.9-149,345.1-160.8c288.2-19.6,464.7,56.9,572.5,243.1c47,78.4,56.8,119.6,62.7,270.6c11.8,241.2-15.7,331.4-131.4,443.1c-113.7,109.8-202,135.3-456.9,135.3C4816-3694.9,4747.4-3704.7,4690.5-3732.1z"/></g></g>
</svg>